<svg width="720" height="271" viewBox="0 0 720 271" fill="none" xmlns="http://www.w3.org/2000/svg">
    <mask id="pagxq31mna" style="mask-type:luminance" maskUnits="userSpaceOnUse" x="0" y="0" width="720" height="271">
        <path fill="#fff" d="M0 0h720v271H0z"/>
    </mask>
    <g mask="url(#pagxq31mna)">
        <path d="M564.201 81.8c0 1.32-.58 2.3-1.81 2.79-2.8 1.07-54.393-.858-54.393-.858L506.506 44s55.835 1.28 56.865 1.42c.75.1 1.21.46 1.21 1.16 0 1.04.06 2.13-.27 3.1a11.627 11.627 0 0 0-.32 5.53c.2 1.37.23 2.79.03 4.14-.13.9-.15 1.64.42 2.34.68.84.6 1.76.49 2.77-.17 1.36-.15 2.74-.17 4.13 0 .54.29 1.2.09 1.63-1.27 2.75-.54 5.62-.65 8.1v3.48z" fill="#DEF0F5"/>
        <path fill-rule="evenodd" clip-rule="evenodd" d="M525.72 49.5c12.232.23 24.468.23 36.7 0v-.01c.77-.01.77 1.07-.01 1.09a978.22 978.22 0 0 1-36.7 0c-.981-.019-1.966-.03-2.954-.041-3.092-.035-6.207-.07-9.276-.359-.63-.05-.65-.88 0-.9 2.688-.08 5.403.012 8.109.104 1.381.046 2.759.093 4.131.116zm27.351 6.033c2.466-.151 4.935-.303 7.389-.273.6 0 .77.88.15.96-3.105.432-6.329.505-9.488.577-.718.017-1.433.033-2.142.053-8.167.242-16.341.149-24.5-.28l-5.95-.33c-.367-.02-.737-.035-1.107-.05-1.417-.056-2.85-.113-4.213-.51-.25-.07-.3-.46 0-.5 1.45-.247 2.92-.148 4.383-.05.313.022.625.043.937.06 1.203.055 2.401.12 3.599.185.784.043 1.568.086 2.351.125 3.95.19 7.9.32 11.84.38 3.95.03 7.93 0 11.89-.1 1.616-.047 3.238-.147 4.861-.247zm9.369 4.887c-5.23-.183-10.491-.105-15.742-.026a598.79 598.79 0 0 1-8.238.086c-3.93 0-7.87 0-11.8-.02l-6.1-.01c-.338 0-.679-.004-1.02-.009-1.472-.02-2.955-.04-4.36.31a.215.215 0 1 0 0 .43c1.39.38 2.879.374 4.349.368.349-.001.696-.002 1.041.001l6.09.03 11.8.02c2.318 0 4.645.024 6.975.048 5.671.058 11.363.116 17.005-.168.74-.04.75-1.03 0-1.06zm-18.074 7.017c6.015.016 12.037.032 18.054.123v-.01c.77.02.77 1.1 0 1.1-4.923 0-9.847-.034-14.77-.069h-.001a3019.79 3019.79 0 0 0-10.339-.06c-4.25-.03-8.5-.04-12.75-.05l-6-.06c-.236-.003-.514.017-.811.04-.924.068-2.026.15-2.579-.41-.854-.855 1.818-.698 2.743-.644.135.008.233.013.277.013l3-.02h5.99c3.88 0 7.75.01 11.63.03 1.851.007 3.703.012 5.556.017zm16.054 4.993c-7.83.1-15.65.13-23.48.12a460.428 460.428 0 0 1-8.301-.11c-5.071-.098-10.153-.197-15.189.01-.6.03-.6.8 0 .85 5.895.433 11.894.393 17.856.353 1.886-.012 3.769-.025 5.644-.023 7.82 0 15.64-.03 23.47-.12.77-.01.78-1.1 0-1.08zm-7.482 6.064c2.518-.26 5.035-.52 7.562-.274.65.06.68.99 0 .94-2.494-.126-4.945.096-7.407.319-1.427.13-2.857.259-4.303.321-3.513.16-7.042.084-10.566.01l-1.404-.03c-4.16-.08-8.32-.21-12.47-.36-.926-.03-1.867-.043-2.816-.056-2.789-.039-5.637-.079-8.324-.564-.35-.06-.22-.5.08-.54 2.723-.283 5.571-.115 8.374.05 1.16.067 2.313.135 3.446.17 4.03.14 8.05.26 12.09.34.66.01 1.32.022 1.982.034 3.326.058 6.666.117 9.978-.034 1.26-.066 2.519-.196 3.778-.326z" fill="#BDCEDE"/>
        <path d="M323.75 91.022c-.34-2.1-.8-4.2-1.02-6.32-.6-5.56-1.22-11.13-1.56-16.7-.33-5.3-.2-10.62.61-15.89.3-1.97.87-3.92 2.2-5.5.81-.96 1.7-1.4 3.06-1.44 5.77-.26 11.55-.73 17.31-1.1 3.9-.23 7.8-.5 11.7-.62 5.79-.15 11.57-.24 17.35-.27 3.75-.01 7.52.15 11.28.2 2.02.03 4.05.07 6.07.01 9-.33 17.98-.72 26.97-1.02 6.55-.22 13.12-.33 19.67-.5 8.02-.2 16.04-.48 24.06-.64 5.3-.08 10.6-.01 15.9-.05 4.26-.03 8.53.16 12.76-.29 5.7-.6 11.4-.83 17.11-.83 9.7-.03 19.4-.07 29.1-.06 5.64.02 11.3.08 16.93.18 2.58.04 5.17.15 7.73.36a9.194 9.194 0 0 1 3.02.8 4.29 4.29 0 0 1 1.64 1.53c.81 1.36.2 2.65-1.34 2.82-1.1.11-2.22.03-3.34.02-12.83-.15-25.66-1.04-38.5-.64a97.855 97.855 0 0 1-7.96-.18 4.892 4.892 0 0 0-3.14.88c-.96.64-1.53 1.45-1.4 2.68.01.12-.02.27-.02.42-.05 9.62-.05 19.24-.18 28.85-.03 2.35 1.13 3.57 2.98 4.35.76.31 1.63.48 2.44.5 6.28.2 12.56.49 18.84.45 8.51-.05 17.01-.38 25.52-.6.91-.02 1.82-.09 2.72-.04 1.28.07 2 .7 2.25 1.86a2.279 2.279 0 0 1-1.09 2.56 4.898 4.898 0 0 1-2.36.7c-6.84.18-13.67.38-20.5.37-6.2-.03-12.41-.31-18.62-.5-2.72-.07-5.43-.08-8.13-.32-2.97-.25-5.85.16-8.74.63-.8.14-1.64-.01-2.47-.05-1.31-.08-2.63-.29-3.94-.25-4.74.25-9.47.68-14.2.82-7.32.2-14.65.17-21.96.3-4.75.11-9.49.5-14.23.56-4.39.05-8.77-.1-13.18-.2-4.46-.08-8.94-.04-13.38-.31-4.56-.27-9.06.12-13.58.48-7.87.61-15.73.94-23.62.7-5.09-.16-10.18.1-15.27.18-1.18.02-2.37.02-3.56.07l-15.86.8c-3.34.17-6.68.38-10.03.55-3.41.2-6.83.26-10.23.62-1.93.2-3.66-.27-5.8-.93" fill="#203954"/>
        <path d="m558.021 8.693.88-1.58c.46.32.75.43.76.57.07.68.23 1.41.07 2.06-1 4.3-.53 8.68-.55 13.03 0 .97.46 1.92.58 2.92.14 1.2.36 2.46.15 3.6a20.416 20.416 0 0 0-.1 6.4c.26 2.08-.46 2.84-2.54 2.82-2.24 0-44.27.21-44.27.21l-.845-30.04s44.665-.9 45.865 0v.01z" fill="#DEF0F5"/>
        <path d="M344.281 43.654c-.72-.42-1.01-1.52-1.24-2.27-.35-1.2-.55-2.43-.8-3.66a55.202 55.202 0 0 1-1.2-8.16 32.74 32.74 0 0 1 .65-8.42c.58-2.8 1.63-5.44 2.66-8.08.57-1.48 1.68-2.15 3.35-2.32 31.39-3.3 63-3.8 94.55-4.65 31.32-.85 62.63-1.23 93.91-1.05 1.88.02 3.76.02 5.64.06 3.75.05 7.5.53 11.26.56 1.89.02 3.73.03 5.54.56.27.06.54.1.8.2.87.36 1.65.83 1.6 1.92-.06 1.03-.52 2-1.54 2.23-1.32.31-2.74.31-4.1.38-.56.01-1.11-.22-1.65-.23-9.56-.18-19.13-.34-28.68-.46-1.1 0-2.2.31-3.31.4-2.3.16-3.67 1.41-4.5 3.44a24.613 24.613 0 0 0-1.63 13.3c.2 1.14.07 2.32.18 3.49.22 3.03 1.63 4.56 4.7 5.09.9.15 1.79.28 2.7.3 6 .05 12 0 18.02.12 3.05.07 6.1.44 9.16.62 1.04.08 2.1.1 3.14.1 1.54.02 3.07 0 4.61.02 1.27.03 1.94.53 1.91 1.37-.03.81-.72 1.33-1.93 1.37-4.04.14-8.08.31-12.12.38-1.74.02-3.48-.28-5.2-.28-8.94-.06-20.52 1.1-29.44 1.13-31.48.09-60.35.39-91.8 1.66-23.62.97-73.88 1.68-75.24.88" fill="#A5483D"/>
        <path fill-rule="evenodd" clip-rule="evenodd" d="M503.901 11.053c-1.35 4.16-1.95 8.45-1.95 13.76a36.536 36.536 0 0 0 1.44 9.95c.58 2.03 1.65 2.63 3.48 2 .75-.27 1.1-.74.9-1.71-.39-1.93-.73-3.87-.97-5.81a43.983 43.983 0 0 1 .36-13.63c.088-.489.182-.977.276-1.465.226-1.178.453-2.357.594-3.545.12-1.15-.23-1.46-1.3-1.56-1.68-.19-2.26.21-2.83 2.01zm-154.78 2.77c.07-.27.11-.6.1-.9-.02-.3-.09-.57-.32-.77-.35-.29-.9-.14-1.2.2-.33.35-.47.85-.59 1.33-1.15 4.23-2.14 8.53-2.3 12.93-.11 2.81.1 5.63.34 8.43.113 1.581.3 3.156.56 4.72.13.81 1.14 3.51 1.86 1.53.17-.48.13-1.02.07-1.52-.6-5.4-1-10.88-.37-16.28a88.704 88.704 0 0 1 1.85-9.67z" fill="#FFD186"/>
        <path fill-rule="evenodd" clip-rule="evenodd" d="M557.7 23.294c-2.272-.427-4.705-.48-7.099-.532-.978-.021-1.949-.042-2.901-.088-3.41-.15-6.83-.3-10.25-.42-3.43-.12-6.85-.2-10.27-.24-.747-.01-1.509-.032-2.278-.055-2.574-.076-5.228-.154-7.692.255-.27.06-.29.46 0 .51 2.248.335 4.623.3 6.965.264 1.012-.015 2.018-.03 3.005-.014 3.29.05 6.59.14 9.89.24 2.201.073 4.407.165 6.611.256l3.269.134c1.055.051 2.131.136 3.216.222 2.483.196 5.012.395 7.434.207.41-.02.6-.65.1-.74zm-.19 3.68c-9.743-.368-19.491-.628-29.24-.78-.717-.008-1.442-.028-2.171-.047-2.31-.064-4.657-.128-6.899.207-.27.04-.27.46 0 .5 2.179.33 4.444.315 6.681.3.802-.006 1.6-.011 2.389 0 3.24.04 6.5.1 9.74.17 3.9.101 7.8.225 11.7.349 2.6.082 5.2.165 7.8.24.65.01.65-.91 0-.94zm-19.06 4.59 19.05.14v.01a.47.47 0 0 1 0 .93l-.118-.001c-6.311-.04-12.641-.08-18.932-.14l-9.73-.08c-.813-.005-1.635.002-2.459.01-2.296.02-4.617.04-6.861-.21-.53-.05-.54-.68 0-.73 2.27-.2 4.617-.134 6.942-.07.932.026 1.86.052 2.778.06l9.33.08z" fill="#BDCEDE"/>
        <path d="M458.116 34.332c-.607-.351-1.544-1.263-1.735-1.675.913-.298 1.977-.711 2.623-1.11.517-.305 1.596-1.468 2.096-2.235-.588-1.013-2.057-3.82-2.489-4.795-.313-.715-.86-2.412-1.143-3.502-.482.062-1.815.332-2.231.391a2.597 2.597 0 0 1-.201-.675c.367-.19 2.825-1.007 3.94-1.203.11-.004.333.054.377.074-.013.243-.088.598-.143.886.081.988.788 3.45 1.01 4.08.196.543 1.133 2.665 1.646 3.439.548-.68 1.813-3.37 2.183-4.66.137-.467.467-1.668.542-2.596-.307.011-1.881.312-2.318.394a2.562 2.562 0 0 1-.202-.675c.346-.189 2.803-1.006 3.919-1.202.109-.004.354.053.399.074-.23 1.527-.622 2.819-1.042 3.979-.399 1.115-1.894 4.143-2.83 5.609-.501.745-.938 1.421-1.709 2.595-.709 1.06-1.747 2.156-2.692 2.807zM445.488 30.155c-.094-.15-.194-.477-.222-.652.238-.097 1.245-.266 1.901-.379l.001-1.145c.122-5.046.134-5.905.131-6.587-.33.012-1.86.311-2.319.394a2.676 2.676 0 0 1-.201-.653c.367-.19 2.781-1.005 3.897-1.179.11-.004.332.032.376.052-.01.309-.207.933-.322 1.4-.04.11-.047 1.696-.038 2.532.309-.562 1.368-2.274 1.684-2.66.425-.434 1.539-1.246 2.383-1.651.25.21.926 1.22 1.098 1.698-1.004.258-2.223.633-2.85.942-.469.392-1.734 1.914-2.227 2.857.042 1.143.109 2.351.125 2.791l-.093 1.06c.791-.051 1.933-.116 2.221-.082.027.131-.08.817-.118.973l-2.814.104c-.352.013-2.393.177-2.613.185zM436.791 30.654c-2.088-.495-3.554-2.026-4.114-3.48-.063-1.693.715-3.88 1.725-5.15.638-.596 2.235-1.47 3.373-1.644 1.687.378 3.332 1.396 4.196 2.729.057 1.538-.224 3.464-.87 5.03-.778.997-2.649 2.189-4.31 2.515zm.634-1.3c.723-.094 1.977-.712 2.464-1.237.493-.965.674-2.6.635-3.656-.497-1.522-1.858-2.617-3.412-2.955a4.498 4.498 0 0 0-1.584.609c-.801.976-1.274 2.469-1.313 3.79.459 1.679 1.788 3.105 3.21 3.448zM426.123 31.093c-.369-.448-.998-1.966-1.151-2.533.148-1.348.218-2.452.211-3.816.014-.816-.017-1.65-.047-2.464l-1.495.055c.035-.243.108-.642.148-.754.085-.07.863-.472 1.252-.663-.005-.726.002-2.333.031-2.73.235-.186 1.165-.638 1.515-.695.01.263-.027 3.413-.012 3.809.416-.038 2.453-.333 3.481-.504-.011.287-.307 1.2-.389 1.38-.374-.008-2.728.035-3.102.049-.019.683.021 1.76.065 2.947.077 2.089.125 3.364.346 4.589 1.098-.085 2.489-.577 3.139-.843.068.041.237.453.288.628-.751.534-2.72 1.465-4.28 1.545zM416.517 31.515c-1.209.045-2.582-.19-3.231-.452.009-.375.337-2.214.45-2.725.064-.046.698-.18.94-.189.03.22.219 1.775.281 2.257.446.138 1.684.29 2.211.249.761-.249 1.745-1.034 1.944-1.614-.303-.45-1.615-1.393-2.696-2.035-1.148-.684-2.273-1.347-2.826-2.009-.044-.593.266-1.727.471-2.153.743-.732 2.039-1.396 2.801-1.623.263-.053 1.03-.126 1.382-.139.594-.022 1.255-.002 1.631.05.051.174.112.634.153 1.16.044.594.092 1.296.134 1.823-.261.098-.676.18-.983.213-.148-.435-.718-2.153-.815-2.392a6.696 6.696 0 0 0-.904-.032c-.526.063-1.668.722-1.966.997-.105.158-.368.784-.376 1.137.23.278 1.251 1.098 2.4 1.804 1.33.832 2.727 1.705 2.908 1.83.119.26.26 1.069.277 1.53-.609.794-2.069 1.794-3.09 2.163-.349.1-.656.134-1.096.15zM404.816 31.663c-.093-.129-.194-.477-.223-.652.151-.094 1.245-.289 1.902-.38.048-2.246.157-7.05.153-7.732-.416.06-1.772.286-2.341.395a4.369 4.369 0 0 1-.179-.676c.346-.167 2.804-.984 3.919-1.18.11-.004.354.053.399.073-.053.355-.307 1.223-.443 1.712.018.484.249 5.517.274 6.198l-.116 1.04c.77-.03 1.627-.061 1.892-.049.027.131-.035.838-.074.971l-2.638.098c-.374.014-2.305.174-2.525.182zm2.214-12.125c-.401-.139-1.141-.508-1.325-.699.096-.378.63-1.432.839-1.726.329-.034 1.848.548 2.031.74-.269.471-1.202 1.43-1.545 1.685zM387.77 32.273c-.092-.107-.215-.455-.266-.629.26-.12 1.2-.287 1.923-.38.098-2.71.076-4.493.064-6.012-.101-1.537-.258-3.975-.408-5.643a29.1 29.1 0 0 1-1.449.098c-.132.005-.396-.007-.528-.002-.01-.264.057-.839.095-.995l2.66-.098c.374-.014 2.349-.175 2.569-.183.093.128.195.499.223.674-.172.094-1.157.263-1.836.354.01.858.054 3.829.093 5.478.769-.05 2.041-.163 3.094-.268 1.426-.141 2.852-.26 4.035-.436-.102-1.56-.21-3.273-.337-4.941-.329.034-.768.072-1.142.086-.286.01-.528.02-.726.005a5.605 5.605 0 0 1 .095-.994l2.55-.095c.374-.014 2.437-.178 2.657-.186.093.128.195.499.223.674-.172.095-1.267.267-1.924.358.014.968.033 3.257.077 5.633.005.726.196 2.92.313 4.28.039.462.075.835.08.989-.036.2-.093.465-.126.753.417-.038.901-.056 1.318-.071.352-.013.639-.002.771-.007.009.242-.041.684-.096.973l-2.88.106-2.504.16c-.092-.107-.215-.455-.244-.63.26-.12 1.2-.287 1.88-.378.086-2.425.069-4.075.06-5.484l-7.14.397c.105 1.625.297 3.841.343 4.5-.036.222-.071.465-.126.753.395-.036.857-.053 1.23-.067.374-.014.705-.004.859-.01.009.242-.061.75-.097.972l-2.88.107-2.503.159z" fill="#FFD186"/>
        <path fill="#144683" d="M365.998 86.997h175.057v37.687H365.998z"/>
        <path fill-rule="evenodd" clip-rule="evenodd" d="M537.491 91.95c.081.032.158.072.23.12.24.18.41.42.14.65-.14.1-4.43.26-6.34.26h-36.95c-39.145.07-78.285.432-117.423.792-16.192.15-32.385.3-48.577.428-.76 0-.76-.9 0-.92 15.66-.32 31.34-.47 47.04-.62l14.24-.15c12.35-.11 24.68-.2 37.03-.27 24.673-.169 49.346-.265 74.02-.29h18.52c1.885 0 3.767-.013 5.65-.025a850.39 850.39 0 0 1 5.65-.025c.298-.002.779-.017 1.352-.034 1.909-.058 4.841-.147 5.418.084zm0 17c.081.032.158.072.23.12.24.18.41.42.14.63-.14.12-4.43.27-6.34.27-12.3-.01-24.62-.01-36.95.01-39.145.071-78.285.432-117.423.792-16.192.15-32.385.299-48.577.428-.76 0-.76-.91 0-.92 15.66-.32 31.34-.47 47.04-.62l14.24-.15c12.35-.12 24.68-.2 37.03-.27 24.673-.169 49.346-.265 74.02-.29h18.52c1.885 0 3.767-.013 5.65-.025 1.882-.013 3.765-.025 5.65-.025.298-.002.779-.017 1.352-.034 1.909-.058 4.841-.147 5.418.084z" fill="#fff"/>
        <path d="M386.779 52.656c.08 1.69.17 2.95.2 4.2a8.725 8.725 0 0 1-.8 4.41c-.97 2.14-.32 4.5-.43 6.74-.09 2.27-.54 4.5-.69 6.76-.18 2.36.1 4.68-.02 7.05-.03.48-.16 2.03-.18 2.5-.1 2.26-.9 1.85-3.2 2.05-2.04.2-4.1.42-6.16.57-2.56.2-5.1-.14-7.52-.94a7.369 7.369 0 0 1-2.82-1.64c-4.25-4.22-6.54-9.3-6.1-15.3.12-1.9.76-3.78 1.4-5.56 1.05-2.89 2.18-5.75 3.96-8.3 2.5-3.58 6.08-4.96 10.28-5.18 3.2-.15 6.31.44 9.38 1.28 1.08.29 2.02 1 2.7 1.36" fill="#DEF0F5"/>
        <path fill-rule="evenodd" clip-rule="evenodd" d="M385.551 57.709c.082.017.167.034.237.076.01.02.04.02.04.02.12.08.2.24.16.34-.06.18-.29.24-.49.26-1.88.17-3.8.14-5.68.1l-7.37-.17a9 9 0 0 1-1.55-.13c-.15-.02-1.21-.24-.81-.56.236-.167.804-.132 1.224-.105.131.008.248.015.336.015l1.84-.02 3.76-.05h.015c1.525-.02 3.04-.04 4.555-.02 1.22 0 2.43.03 3.63.22.033.01.068.017.103.024zm-1.943 5.136c-2.411-.396-4.971-.404-7.457-.411-.525-.002-1.047-.003-1.563-.009-.412-.006-.829-.014-1.248-.023-2.368-.05-4.827-.101-7.112.323-.35.07-.28.5.05.54 1.872.213 3.814.165 5.743.118.976-.024 1.949-.048 2.907-.038a89.68 89.68 0 0 1 3.406.135c1.75.09 3.501.182 5.234.115.56 0 .57-.67.04-.75zm-1.594 4.933c1.268-.046 2.532-.092 3.744.247v-.01c.38.13.29.6-.12.6-1.689-.05-3.379-.035-5.071-.02-1.693.015-3.388.03-5.089-.02a123.32 123.32 0 0 0-1.899-.036 74.369 74.369 0 0 1-3.261-.094 32.703 32.703 0 0 1-2.853-.28c-.489-.061-1.373-.17-1.46-.51.345-.456 2.597-.236 3.902-.108h.001c.365.035.656.064.81.068 1.73.07 3.46.14 5.2.19 1.74.04 3.47.05 5.19 0 .302-.005.604-.016.906-.027zm-16.009-.122-.007.01v-.06a.21.21 0 0 0 .007.05zm17.583 4.07c-2.314-.078-4.635-.095-6.952-.113-.696-.005-1.392-.01-2.088-.018-.719-.008-1.467-.042-2.228-.078-2.075-.096-4.239-.196-6.142.228-.23.05-.25.36-.01.42 1.937.485 4.141.414 6.243.346.719-.023 1.427-.046 2.107-.046l1.299.018c2.585.037 5.166.074 7.761.022a.399.399 0 0 0 .01-.78zm-7.02 4.82c2.99.02 5.99.06 8.96.11.64.01.61.86-.01.86l-8.98-.01c-.712-.003-1.435.008-2.162.019-2.048.031-4.13.063-6.108-.21-.38-.07-.35-.63.02-.67 2.024-.263 4.151-.204 6.238-.145.687.019 1.369.038 2.042.045zm3.489 3.915c1.917-.05 3.898-.102 5.691.264.35.07.32.53-.01.6-1.787.325-3.729.254-5.618.186a67.648 67.648 0 0 0-2.162-.056 86.89 86.89 0 0 0-1.943.014c-1.947.029-3.936.058-5.807-.294-.29-.04-.27-.45.01-.5 1.867-.32 3.863-.268 5.812-.217.66.017 1.315.035 1.958.037.673.003 1.367-.015 2.069-.034z" fill="#BDCEDE"/>
        <path d="M220.948 52.717c.16-.2.37-.34.66-.44 1.08-.36 2.36-.3 3.48-.36 44.07-2.31 99.99-3.47 150.09-2.66 3.8.06 7.4 1.39 11.16 1.64.68.05 1.45.22 1.98.6.4.32.75 1.07.67 1.57-.1.45-.71.96-1.21 1.17-.48.2-1.11.1-1.66.1-4.49-.2-8.95-.28-13.42-.57-1.71-.1-2.77.55-3.65 1.86-5.99 8.9-5.9 18.1-1.4 27.54.66 1.38 1.63 2.04 3.26 2.1 4.67.19 9.35.49 14.03.79.89.04 1.95-.1 2 1.24.05.9-.68 1.56-1.98 1.75-1.18.17-2.38.26-3.56.25-6.37-.1-12.73-.26-19.1-.37-49.27-.79-91.74.06-137.58 1.05-.42 0-.85.03-1.27 0-1.69-.13-2.21-.59-2.38-2.27a90.58 90.58 0 0 1-.45-5.98c-.36-7.6-.96-15.18-.37-22.78.08-1.08.18-2.17.29-3.25.1-.98-.19-2.25.4-2.98" fill="#216475"/>
        <path fill-rule="evenodd" clip-rule="evenodd" d="M283.239 79.275c.78.56 2.04.72 3.28.72v-.01c1.66 0 3.25-.29 3.54-.35 2.2-.45 4.83-1.83 5.68-4.4.69-2.06-.02-4.5-1.82-6.2-1.83-1.73-4.29-2.37-6-2.6l-.1-.02c.84-.71 1.42-1.64 1.62-2.61.33-1.66-.42-3.47-2.12-5.09-1.33-1.24-3.53-2.36-5.43-1.32-1.75.97-1.92 3.04-1.89 4.5a63.284 63.284 0 0 0 1.42 12.09l.15.93c.27 1.94.61 3.62 1.67 4.36zm-7.84-11.802c.395.002.788.003 1.18.073v-.01c.98.18 1.53.88 1.4 1.8-.13.87-.63 1.39-1.58 1.37l-3.84-.12c-.536 0-1.071-.014-1.694-.03l-.376-.01-.248.8c-.257.824-.508 1.627-.712 2.43-1.3 5-3.79 6.91-9.03 7.2-3.061.155-5.85-.75-8.657-1.661l-.273-.089a28.51 28.51 0 0 1-7.41-3.81c-1.39-.97-2.71-2.05-3.99-3.15l-.565-.5c-.454-.4-.904-.797-1.335-1.2a7.053 7.053 0 0 0-.378-.316c-.315-.252-.639-.51-.822-.864-.205-.408.085-.63.372-.85.065-.049.129-.098.188-.15l.138-.117c.402-.34.801-.678 1.232-.983.837-.546 1.688-1.067 2.539-1.588a86.148 86.148 0 0 0 3.031-1.912c4-2.67 8.24-4.68 13-5.6 3.91-.77 9.11.75 11.12 5.43.5 1.16 1.02 2.31 1.68 3.74l4.52.11c.17.006.34.007.51.008zm7.539-8.38c.17-.09.38-.14.59-.14.75 0 1.66.53 2.31 1.16.57.53 1.84 1.92 1.56 3.35-.17.84-.96 1.68-2.07 2.18-.9.4-1.97.6-2.98.73-.15-1.5-.24-3-.27-4.5-.02-1.54.26-2.44.86-2.78zm-.379 9.281c.22 1.74.52 3.49.9 5.23l.16 1.03.013.086c.128.815.422 2.686.847 3.004.67.45 3.25.37 5.15 0 2.03-.41 3.65-1.61 4.13-3.06.45-1.35-.09-3.06-1.32-4.24-1.42-1.34-3.4-1.85-4.82-2.04a23.419 23.419 0 0 0-5.06-.01zm15.26 9.372a.9.9 0 0 1-.9-.74l-1.62-9.72a.902.902 0 0 1 .74-1.04c.5 0 .95.26 1.03.74l1.63 9.7a.899.899 0 0 1-.73 1.05l-.15.01zm3.51-10.37c.089-.406.278-.784.55-1.1v-.01a.85.85 0 0 1 .32-.2c1.11.32 2.07 7.1 1.82 8.97-.05.47-.15.75-.25.83-.07.06-.28.1-.52-.04-.31-.15-.59-.55-.8-.85a9.34 9.34 0 0 1-1.12-7.6zm2.249 10.617c-.4 0-.81-.1-1.2-.3a4.426 4.426 0 0 1-1.55-1.53 11.64 11.64 0 0 1-1.4-9.4c.19-.6.5-1.45 1.16-2.06h.02c1.13-1 2.09-.73 2.56-.45 2.64 1.53 2.93 10.07 2.8 11.06-.08.7-.28 1.61-1 2.2-.37.31-.87.48-1.39.48zm3.671-.847c.06.5.44.85.88.85l.12-.01c.5-.07.84-.56.77-1.1l-2.27-19.04c-.06-.5-.44-.85-.88-.85l-.12.01c-.5.07-.84.56-.77 1.1l2.27 19.04zm5.27-10.26-.09.21v.01c-.7 2.03-.77 4.26-.16 6.32.14.45.36 1.1.78 1.47.26.22.67.3.85.13.278-.22.252-1.014.241-1.36l-.001-.04-.12-3.26a6.934 6.934 0 0 0-.33-2.31c-.25-.58-.9-1.15-1.17-1.17zm-.66 9.458a2.8 2.8 0 0 0 1.76.65c.52 0 1.04-.16 1.44-.52.994-.799.953-2.158.932-2.865l-.002-.055-.11-3.27-.002-.04c-.039-.92-.084-1.954-.478-2.92-.39-.95-1.57-2.33-2.9-2.33-.37-.02-1.34.12-1.82 1.5a12.302 12.302 0 0 0-.19 7.47 4.95 4.95 0 0 0 1.37 2.38zM315.059 79.377c.6 1.6 2.31 2.62 4.09 2.62a4.197 4.197 0 0 0 1.6-.3c1.83-.68 3.26-2.44 3.8-4.68.25-.97.33-1.95.3-2.9.247-.837.144-1.684.054-2.417l-.004-.033-.63-5.69a.858.858 0 0 0-.2-.49c-.46-.99-1.59-1.58-2.78-1.48a3.5 3.5 0 0 0-2.62 2.05 6.622 6.622 0 0 0-.5 2.9c.047 1.65.396 3.277 1.03 4.8.76 1.83 2.12 2.86 3.46 2.59l.1-.03-.05.23c-.4 1.61-1.4 2.91-2.63 3.35-1.1.46-2.77-.02-3.22-1.2a.98.98 0 0 0-1.24-.57.97.97 0 0 0-.56 1.25zm6.48-13.47h.1c.29 0 .61.18.71.4-.107 1.545.091 3.061.287 4.558l.013.102.07.6c.114.752.187 1.51.22 2.27-.13.32-.38.55-.58.59-.5.22-1.08-.65-1.4-1.41-.54-1.31-.84-2.68-.88-4.1-.02-.88.08-1.53.32-2.03.24-.54.7-.91 1.14-.98z" fill="#7FADAA"/>
        <path d="M330.259 81.996c-.83 0-1.67-.24-2.4-.7a4.11 4.11 0 0 1-1.84-2.55.97.97 0 0 1 .66-1.17c.46-.11.96.2 1.08.72.14.54.5 1.02 1.01 1.34a2.7 2.7 0 0 0 2.17.35 4.202 4.202 0 0 0 2.37-2.11c-.83.11-1.75-.1-2.52-.72a6.85 6.85 0 0 1-1.68-2.35 17.998 17.998 0 0 1-1.55-9.98c.07-.5.48-.94 1.02-.8.5.07.84.56.77 1.09-.4 3 .08 6.13 1.37 8.82.26.57.63 1.26 1.15 1.68.37.28.91.49 1.33.3.35-.15.65-.58.8-1.12.15-.58.12-1.24.1-1.96l-.1-2.5c-.16-1.64-.33-3.34-.15-5.04a.93.93 0 0 1 .9-.85h.03c.47.03.86.42.87.92l.21 5.69c.18 1.97.28 4.09-.3 6.08-.68 2.35-2.26 4.14-4.14 4.7-.37.1-.76.16-1.16.16" fill="#7FADAA"/>
        <path d="m251.068 77.765.01-.12c.04-.11.12-.2.19-.29.74-1.01 1.37-2.12 2.05-3.18.78-1.54 1.79-2.71 2.36-4.37 0 0-2.67-.02-3.96.23-.67.12-2 .29-2 .29s-1.09 1.38-1.58 2.04c-.66.9-1.33 1.81-2.1 2.62-.1.1-.19.2-.3.22-.1.04-.26.03-.34-.06-.07-.08-.08-.18-.08-.28 0-.54.33-.92.68-1.28.9-.9 1.98-3.55 1.98-3.55s-9 .2-8.98-.92c.03-1.12 8.8-.26 8.8-.26s-3.22-3.22-2.63-3.8c.6-.6 1.6.6 2.3 1.57 1.75 2.35 2.07 2.31 2.07 2.31l5.9-.24s-.93-1.7-1.03-1.85l-1.07-1.7c-.37-.58-.76-1.14-1.15-1.72-.16-.23-1.04-1.38-.74-1.6.14-.11.36-.11.52-.04.18.07.45.16.57.33 1.1 1.59 2.2 3.15 3.2 4.8.56.97 1.25 1.43 2.34 1.42 1.62-.03 3.25.04 5.36.11-1.1-1.75-1.88-3.06-2.74-4.32-.85-1.26-3.27-3.55-2.66-4.06.61-.5 2.17 1.7 2.94 2.68 1.02 1.35 1.88 2.85 2.83 4.27.55.84 1.19 1.51 2.33 1.54.86.03 2.77-.2 2.86.67.1.86-2.74.25-3.97.74-1.932 3.283-3.875 6.56-5.83 9.83-.07.12-.78.5-.64-.26.14-.74 3.32-6.37 5.2-10-2.25-.36-6.57.05-6.57.05s-.4.85-.7 1.31c-1.02 1.72-1.97 3.49-3.06 5.16-.3.46-.67.86-1.03 1.25-.24.2-.42.47-.67.65-.22.14-.67.17-.66-.19" fill="#518F8B"/>
        <path fill-rule="evenodd" clip-rule="evenodd" d="M226.319 54.566c-.05.03-.14.13-.14.13-.16.17-.27.42-.08.64.1.11 2.95.19 4.2.16 8.15-.21 16.3-.41 24.45-.58 25.523-.57 51.041-.841 76.558-1.111 11.114-.118 22.228-.236 33.342-.379.49 0 .46-.92-.03-.92-10.39-.05-20.78.04-31.16.14l-9.44.1c-2.72.034-5.441.066-8.162.098-5.443.065-10.885.13-16.318.202-16.335.238-32.668.548-49 .93-2.705.06-5.4.128-8.099.197-1.382.035-2.766.07-4.151.103a613.8 613.8 0 0 1-3.725.075c-1.255.023-2.508.045-3.755.075a31.34 31.34 0 0 1-.937-.016c-1.267-.032-3.172-.08-3.553.156zm136.35 28.38a.492.492 0 0 1 .14.13c.16.17.28.42.1.63-.1.11-2.93.27-4.2.27-8.14-.01-16.3-.01-24.46.01-25.513.056-51.016.413-76.524.77-11.114.155-22.229.31-33.346.44-.5 0-.5-.9 0-.93 10.34-.299 20.72-.449 31.08-.599h.06a5546.03 5546.03 0 0 1 58.43-.62c8.155-.06 16.32-.08 24.475-.1h12.275c1.25 0 2.497-.013 3.745-.026a373.43 373.43 0 0 1 3.745-.025c.217 0 .583-.016 1.015-.035 1.262-.056 3.093-.138 3.465.085z" fill="#fff"/>
        <path d="M322.331 113.09c-.58.42-1.37.46-2.1.49l-10.3.33-33.81 1.09c-1.76.04-2.32-.8-2.4-2.36-.2-3.55-.45-7.1-.69-10.65-.16-2.4.22-2.92 2.58-3.06 8.34-.5 16.68-1 25.03-1.39 4.34-.18 8.68-.36 13.03-.48 2.1-.07 7.65-.24 8.18.67.5.9.52 6.01.72 8.41.1 1.38 1.05 6-.24 6.95" fill="#3C3C3C"/>
        <path d="M318.081 88.638c8.65-.24 17.28-.58 25.95-.63 9.9-.05 19.8.14 29.72.26 1.66.03 3.33.2 5 .3 2.13.12 2.98.65 3.59 2.74 1.98 6.72 3.45 14.37 2.2 21.35-.46 2.44-1 4.88-1.63 7.27-.35 1.43-.7 1.5-2.23 1.56-3.06.11-6.13.34-9.19.52-1.38.1-2.77.22-4.17.29-9.12.45-18.24.89-27.4.86-6.9-.01-13.8.2-20.7.42-5.09.15-10.17.53-15.25.7-5.64.2-11.29.34-16.94.4-8.17.1-16.33.03-24.48.18-5.36.11-10.73.53-16.1.73-1.73.06-3.48-.14-5.21-.21-.63-.01-1.26-.07-1.88 0-4.23.48-8.45 1-12.66 1.49-.14.03-.29.04-.42.05-3.09.3-3.9-.16-4.59-3.15a48.38 48.38 0 0 1-1.25-7.35c-.3-4.35-.51-8.73-.42-13.08.04-2.6.62-5.22 1.2-7.78.23-1.09 1.04-2.07 1.7-3.02.7-.98 1.77-1.23 2.94-1.3 6.12-.4 12.24-.85 18.34-1.25 3.2-.2 6.41-.32 9.62-.44 6.27-.2 12.54-.46 18.83-.55 15.14-.18 30.28-.3 45.43-.46v.1" fill="#DF5632"/>
        <path fill-rule="evenodd" clip-rule="evenodd" d="M236.931 122.38c.03.81.46 1.89.87 1.56h.01c.37-.309.318-1.67.277-2.739a34.855 34.855 0 0 1-.017-.491c-.12-7.28-.26-14.56-.43-21.86-.03-1.82-.08-3.65-.31-5.48-.05-.39-.12-.81-.37-1.11-.24-.28-.71-.37-.94-.07-.14.21-.14.48-.13.73.36 9.83.7 19.63 1.04 29.46zm-8.68-23.883c-.051-1.52-.141-4.267-.77-4.477v-.01c-.62-.21-.62 1.82-.6 2.5l.9 24.33c.006.12.01.25.014.388.025.79.058 1.812.476 2.382.53.76.88.32.86-.56l-.88-24.55v-.003z" fill="#010101"/>
        <path d="M231.62 121.948c-.48-.29-.53-1.69-.57-2.14a893.553 893.553 0 0 1-1.52-26.02c-.02-.48-.04-1 .22-1.4.25-.41.87-.54 1.14-.17.1.18.13.4.14.63l1.44 27.22c.04.48.04 1.77-.58 1.92a.36.36 0 0 1-.27-.04" fill="#fff"/>
        <path fill-rule="evenodd" clip-rule="evenodd" d="m372.051 119.95-.2-.1c-.398-.291-.322-1.94-.273-2.994.015-.324.028-.591.023-.746l-.2-7.96c-.13-5.43-.24-10.84-.35-16.26 0-.72.07-1.6.67-1.89.62.25.72 1.13.75 1.84.18 8.88.35 17.75.48 26.63.01.6-.22 1.77-.9 1.48zm-108.32 2.03c-.63.28-.93-2.81-.94-3.36l-1.05-27.03a2.604 2.604 0 0 1 .1-1.06c.14-.34.46-.6.77-.51.45.12.54.76.55 1.27.096 6.128.378 12.228.661 18.33.157 3.397.314 6.796.439 10.2.02.47.03 1.16-.14 1.58-.14.34-.27.53-.4.58h.01zm69.06-3.36c.01.55.31 3.64.94 3.36.12-.05.25-.24.38-.58.18-.42.17-1.11.15-1.58-.125-3.404-.282-6.803-.439-10.2-.283-6.102-.565-12.202-.661-18.33-.01-.51-.1-1.15-.55-1.27-.31-.09-.63.17-.77.51-.106.343-.14.704-.1 1.06l1.05 27.03z" fill="#010101"/>
        <path d="M367.941 90.051c.1.06.17.19.23.28.31.63.38 1.38.42 2.1.082 1.505.115 3.013.1 4.52 0 7.22.02 14.42.03 21.63 0 .32-.01.67-.14.94-.72 1.5-1.13-.95-1.13-1.45l-.17-27.14c0-.21 0-.43.08-.63.1-.2.32-.36.52-.28l.06.03z" fill="#fff"/>
        <path fill-rule="evenodd" clip-rule="evenodd" d="M369.961 180.302v-.002c.011-.488-.041-3.403-.088-6.089-.037-2.106-.072-4.07-.072-4.611 0-2.14 0-4.28-.02-6.4-.01-1.91-.88-2.57-2.46-2-1.01.36-1.1 1.28-1.12 2.21-.009.868-.004 1.737.002 2.604.007.989.014 1.975-.002 2.956-.015 1.948-.05 3.898-.085 5.85a574.05 574.05 0 0 0-.085 5.87c0 1.77.1 3.55.2 5.32a2.1 2.1 0 0 0 2.11 1.99c1.01-.03 1.4-.57 1.45-1.99.07-1.909.12-3.809.17-5.708zm-115.35 10.558c1.68.56 3.2-.66 3.2-2.6.007-2.565-.204-9.842-.336-14.367-.044-1.51-.079-2.713-.094-3.333-.05-1.85-.21-3.7-.41-5.52-.07-.57-.32-1.38-.72-1.62-1.05-.63-2.21-.51-3.31.07-.832.434-.781 1.235-.734 1.976l.014.234c.098 2.984.221 5.968.37 8.95.121 2.133.25 4.264.379 6.394v.001c.159 2.623.317 5.244.461 7.865.05.94.33 1.68 1.18 1.95zm7.74-.88c-.24-.1-.44-.58-.5-1.26l-.04-.503c-.187-2.375-.376-4.765-.46-7.147-.201-4.386-.331-8.772-.462-13.164l-.078-2.596a5.225 5.225 0 0 1 .12-1.7c.1-.29.56-.56.87-.6.18-.04.5.4.59.7.087.277.09.585.092.906.001.12.002.242.008.364l.6 21.5c.005.211.026.459.049.723.058.684.124 1.471-.049 1.977-.25.67-.51.9-.74.8zm-16.231-18.765.001 2.055h-.05c-.007.159-.018.32-.029.482-.022.326-.045.654-.031.968.16 4.76.33 9.51.54 14.24.01.39.41.99.69 1.03.68.09.76-.55.75-1.15-.018-.468-.048-.936-.077-1.401a236.69 236.69 0 0 0-.206-3.275c-.143-2.138-.287-4.276-.287-6.414-.017-2.429.031-4.87.079-7.312.036-1.831.072-3.662.081-5.488.004-.145.029-.315.055-.494.101-.686.221-1.496-.755-1.456-.834.059-.795.926-.762 1.67.006.14.012.275.012.4-.015 2.047-.013 4.094-.011 6.145z" fill="#fff"/>
        <path d="M696.89 252.699c1.59 1.45 1.2 2.87.49 4.03a57.297 57.297 0 0 1-4.86 7.05c-1.72 2.05-3.85 3.77-5.8 5.66-.55.53-1.07.74-1.85.37-.46-.2-1.05-.2-1.57-.2-9.7.02-19.4.06-29.1.06-4.31 0-8.62-.08-12.92-.03-2.62.04-4.52-1.33-6.3-2.95-1.07-.96-1.29-2.22-.54-3.37.78-1.22 1.7-2.4 2.81-3.32a27.342 27.342 0 0 1 4.47-2.87c11.02-5.8 22.7-8.18 35.06-6.7 4.65.54 9.29 1.3 13.92 2.02 1.13.18 2.26.53 3.33.95 1.09.44 2.03.62 2.86-.7" fill="#DEF0F5"/>
        <path d="M637.431 266.571c.83.1 1.14.17 1.44.16l16-.3c1.25-.04 2.48-.12 3.72-.1l27.15.6c.6.01 1.24.03 1.86.1.72.1 1.52.45 1.33 1.25-.1.5-.88.91-1.44 1.2-.38.19-.9.1-1.37.1-8.89-.26-17.8-.55-26.68-.73-2.4-.05-4.8.18-7.18.28-3.48.13-6.97.22-10.45.36-2.7.12-5.4.24-8.1.48-2.56.2-4.25-.62-5.28-3.12-2.83-6.84-5.84-13.63-8.75-20.43-1-2.35-1.92-4.74-2.96-7.04-3.47-7.68-7.02-15.32-10.47-23a184.778 184.778 0 0 1-3.05-7.25 7833.925 7833.925 0 0 1-13.84-34.65c-1.21-3.08-2.18-6.26-3.32-9.38-1.48-3.99-3.05-7.92-4.54-11.91-.802-2.089-1.546-4.2-2.23-6.33a4.78 4.78 0 0 1 1.6-5.42c5.4-4.53 10.83-9 16.22-13.5.73-.6 1.5-1.12 2.18-1.75a8.04 8.04 0 0 1 7.08-2.07c6.95 1.07 13.92 2.12 20.86 3.32 6.17 1.05 12.3 2.3 18.47 3.49.81.15 2.44.67 3.77 1.35 1.98 1.03 6.92 15.8 8.53 19.52 3.57 8.2 7.11 16.42 10.66 24.61 9.18 21.25 18.37 42.48 27.47 63.74.75 1.78 1.5 3.57 2.15 5.37a41.344 41.344 0 0 1 1.44 4.66c.81 3.56.1 4.6-3.6 4.54-5.88-.1-11.75-.49-17.63-.63-6.49-.17-13-.04-19.5-.32-3.65-.16-6.49 1-9.22 3.36-3.27 2.83-6.88 5.25-10.35 7.85-.54.41-1.06.86-1.97 1.6" fill="#E6643E"/>
        <path d="M655.021 162.469c2.1 1.5 8.6 22.42 7.93 23.23-.66.82-18.11-.3-22.15-.1-1.1.06-2.2.2-3.41-.06a62.835 62.835 0 0 1-2.73-7.27c-1.42-4.86-3.42-9.53-5.08-14.3-.25-.7-.68-1.37-.56-2.23.3-.13.57-.33.85-.38.7-.14 1.4-.29 2.11-.3 6.42-.17 20.93-.08 23.04 1.4" fill="#F5E7DE"/>
        <path d="M604.401 129.021c.22-.06.5.01.62.2.25.36.47.77.63 1.2l6.3 16.95c.41 1.14.77 2.33 1.14 3.52a86.748 86.748 0 0 0 4.57 12.12c3.37 7.06 5.95 14.43 8.7 21.72 1.4 3.77 2.99 7.46 4.49 11.17 1.73 4.3 3.52 8.6 5.14 12.93a279.504 279.504 0 0 0 6.58 16.07 339.484 339.484 0 0 1 8.61 21.5c.33.88.6 1.76.8 2.66.07.24-.08.63-.26.79-.34.29-.78.13-1-.21a10.827 10.827 0 0 1-.96-1.8c-.6-1.53-1.14-3.06-1.7-4.58-2.76-7.55-6-14.9-9.18-22.29-1.32-3.03-2.52-6.12-3.75-9.22-2.3-5.81-4.62-11.63-6.9-17.44-1.59-4.03-3.2-8.04-4.69-12.1a235.606 235.606 0 0 0-8.1-19.95c-1.6-3.43-2.7-7.07-3.87-10.66-1.24-3.82-2.57-7.6-3.9-11.4-1.03-2.9-2.16-5.8-3.2-8.7a9.672 9.672 0 0 1-.46-2c-.04-.27.15-.44.4-.48" fill="#fff"/>
        <path d="M690.58 257.961c-5.93-.44-12.02-.06-17.97-.27-5.75-.2-11.52-.85-17.28-.89-.45 0-.43.66 0 .73 5.84 1 11.99 1.08 17.9 1.29 5.67.21 11.7.7 17.33.08.56-.06.6-.89.02-.94" fill="#BDCEDE"/>
        <path fill-rule="evenodd" clip-rule="evenodd" d="M651.831 144.39a57.681 57.681 0 0 0-2.945-7.863c-.404-.905-.543-1.215-1.605-1.557a22.714 22.714 0 0 0-3.87-.81c-3.37-.443-6.747-.83-10.13-1.16-.44.29-.3.85 0 .99.689.269 3.042.49 4.716.648.754.071 1.37.129 1.634.172.523.091 1.201.192 1.92.3 1.261.188 2.649.396 3.56.6 1.74.39 2.4.81 3.12 2.46a58.178 58.178 0 0 1 2.56 7.28c.209.714.403 1.47.599 2.237.449 1.758.914 3.578 1.631 5.103.2.45 1.05.1.97-.29a96.652 96.652 0 0 0-2.16-8.11zm44.14 104.65a105.691 105.691 0 0 0-6.92-17.02 92.051 92.051 0 0 1-.357-.707v-.001c-.754-1.507-1.574-3.145-2.773-4.232-.22-.2-.55-.01-.5.32.283 1.341.938 2.587 1.58 3.81.22.418.438.834.64 1.25a140.815 140.815 0 0 1 2.45 5.22c1.56 3.54 2.92 7.15 4.18 10.8-3.871.02-7.741-.026-11.61-.14-.88-.01-.88 1.49 0 1.5 1.841.031 3.682.048 5.525.065 2.362.022 4.729.044 7.105.095.44.01.83-.5.68-.96zm-54.018 7.767c2.243-1.807 4.667-3.759 7.318-4.767.55-.22.97.59.57.94-.871.797-1.885 1.468-2.896 2.137-.498.33-.995.66-1.474 1.003a126.321 126.321 0 0 0-4.82 3.74 375.634 375.634 0 0 0-4.3 3.56c-.25.21-.511.46-.783.72-.827.79-1.754 1.677-2.777 1.85-.65.13-1.13-.75-.48-1.07 1.135-.591 2.214-1.658 3.235-2.667.482-.476.95-.939 1.405-1.333a160.236 160.236 0 0 1 4-3.31c.33-.262.664-.531 1.002-.803z" fill="#fff"/>
        <path d="m624.95 216.142-8.015-.039-.757-1.782a80.24 80.24 0 0 0 2.038-1.279 406.89 406.89 0 0 1 2.286-1.448 71.073 71.073 0 0 0 2.007-1.203l-8.48 1.719-1.066-2.511 13.474-2.341 1.077 2.538c-.172.094-.441.262-.807.502-.347.232-.749.488-1.204.766a75.394 75.394 0 0 1-2.942 1.854c-.473.286-.914.548-1.323.785-.41.237-.732.428-.969.57a13.4 13.4 0 0 1 1.159-.046c.516.015 1.081.02 1.695.014.614-.006 1.244.003 1.891.026.665.015 1.287.027 1.864.037.586.028 1.102.042 1.548.044.473.012.818.025 1.036.038l1.078 2.538-12.511 4.61-1.112-2.619c.206-.066.511-.174.914-.325.404-.15.856-.31 1.358-.48.527-.16 1.064-.346 1.612-.557.555-.193 1.092-.379 1.612-.557.519-.178 1.002-.34 1.449-.488.466-.155.828-.277 1.088-.366zM608.294 198.6l12.992-3.476 1.101 2.593-10.772 2.851 1.547 3.645-2.301.435-2.567-6.048zM605.708 192.507l-1.1-2.593 12.992-3.475 1.1 2.592-12.992 3.476zM606.787 181.687l-1.341-3.159-5.092 1.365-1.112-2.619 12.992-3.476 2.716 6.4-2.232.597-1.604-3.781-3.555.936 1.341 3.159-2.113.578z" fill="#F5E7DE"/>
        <path d="M512.93 264.249c-.1 2.84-.42 3.11-3.25 3.84a57.048 57.048 0 0 1-18.95 1.74c-4.1-.35-8.17-.9-12.23-1.41a6.264 6.264 0 0 1-2.48-.71c-.6-.39-2.071-148.715-2.071-148.715l3.551-1.885c3.551-1.886 12.56-2.401 18.94-1.97 3.28.24 7.87.56 10.87 1.76 2.92 1.17 3.45 3.88 3.57 6.86.58 14.02 2.5 128.8 2.05 140.5" fill="#216475"/>
        <path fill-rule="evenodd" clip-rule="evenodd" d="M505.521 235.479c0-9.51 0-19 .02-28.5v-56.7c.006-2.984.049-5.98.091-8.979v-.001c.11-7.677.22-15.383-.291-22.99-.03-.4-.55-.42-.57-.01-.477 6.75-.395 13.594-.312 20.407v.001c.031 2.604.062 5.204.062 7.792l-.02 28.67-.02 56.56c-.003 3.304-.053 6.624-.103 9.948-.111 7.288-.221 14.6.163 21.832.02.64.86.66.9.02.344-6.39.253-12.845.163-19.279a613.134 613.134 0 0 1-.083-8.771zm-24.67 17.57.03-14.1c.02-9.58.02-19.16.02-28.74.01-19.03.02-38.1-.01-57.14-.01-10.88-.4-21.73-.8-32.57-.03-.65-.88-.68-.92-.03-.213 3.775-.026 7.581.16 11.374.049 1 .099 1.999.14 2.996.18 4.65.25 9.33.28 13.98.024 7.64.023 15.267.021 22.896v.003l-.001 5.721.06 57.24c.03 5.47.04 10.96.05 16.43v.03c.003 1.564-.017 3.134-.037 4.706-.05 3.939-.1 7.892.207 11.794.03.46.62.49.66.02.274-3.492.226-7.026.178-10.541-.019-1.357-.038-2.711-.038-4.059v-.01zm20.86-133.45c.81.677 1.535 1.449 2.16 2.3v.01c.05.09.09.2.12.3.05.3-.11.65-.41.72-.43.1-.78-.3-1.02-.63-.48-.69-1.05-1.33-1.7-1.89-.21-.2-.46-.38-.76-.44-.39-.06-.77.11-1.09.31-.442.297-.803.672-1.165 1.049-.285.295-.569.591-.895.851-.46.39-1.09.72-1.72.65-.51-.08-.95-.39-1.3-.76-.143-.161-.275-.329-.407-.497a7.827 7.827 0 0 0-.543-.643c-.25-.25-.56-.47-.96-.44-.37.01-.66.3-.9.57-.36.46-.68.94-.92 1.44l-.009.02c-.097.203-.197.414-.391.53-.33.22-.81.1-1.2-.04a16.213 16.213 0 0 1-2.82-1.47c-.31-.21-.66-.44-1.04-.4-.22 0-.42.09-.59.2-.55.31-1.05.71-1.48 1.15-.049.049-.097.1-.145.151-.178.188-.359.379-.595.489-.42.16-.86.03-.92-.38-.06-.41.28-.81.56-1.11.57-.64 1.22-1.19 1.95-1.69.3-.22.63-.41 1-.47.75-.1 1.43.39 2.03.83.75.54 1.58 1 2.45 1.38.6-.88 1.33-1.7 2.15-2.42.2-.15.44-.33.7-.35.2 0 .39.09.57.2.56.3 1.11.65 1.6 1.05l.014.012c.446.386.932.808 1.536.818.708.028 1.238-.504 1.715-.985l.085-.085c.58-.57 1.33-1.09 2.21-1.13a3.387 3.387 0 0 1 2.13.8zm-8.01 7.8c-.05-.8-.1-1.6-.21-2.38-.1-.75-1.28-.58-1.28.14 0 .736.054 1.464.108 2.191l.022.309c.005.093.007.186.009.277.012.564.023 1.083.531 1.453.17.13.42.08.56-.05.434-.418.371-.984.309-1.543a7.26 7.26 0 0 1-.039-.407l-.01.01zm-9.133-1.197c.038.431.075.862.123 1.297v-.01c.014.116.033.23.052.341.073.44.14.839-.132 1.239-.15.21-.45.33-.68.18-.504-.374-.547-.876-.596-1.441a12.48 12.48 0 0 0-.024-.259c-.08-.74-.14-1.48-.11-2.23.01-.19.12-.44.34-.54a.555.555 0 0 1 .13-.05.377.377 0 0 1 .36 0c.29.11.43.32.46.62.028.285.053.569.077.853zm16.073.437-.007-.095c-.047-.599-.095-1.205-.323-1.765-.18-.43-.78-.26-.91.1-.46 1.15-.17 2.91.1 4.1.15.73 1.39.63 1.34-.15-.028-.426-.07-.845-.112-1.263-.031-.309-.062-.617-.088-.927zm-8.316 131.22-.004-.3c-.002-.135-.012-.273-.022-.412-.04-.552-.081-1.115.382-1.498.14-.13.41-.16.56-.03.484.375.474.875.463 1.42-.002.108-.004.219-.003.33.003.211.007.422.012.632.013.625.026 1.244-.012 1.858-.05.74-1.22.83-1.3.1-.061-.7-.069-1.4-.076-2.1zm9.006-.39c.031.447.043.894.055 1.336.007.27.014.538.025.804.01.32.15.53.42.65.13.06.24.07.36.03l.1-.04c.26-.08.38-.34.4-.54.08-.74.07-1.49.02-2.22a14.722 14.722 0 0 1-.012-.284c-.021-.561-.039-1.051-.528-1.446-.22-.15-.53-.06-.67.13-.302.372-.256.768-.206 1.197.015.125.03.252.036.383zm-16.018 1.141-.012-.281h.01a45.31 45.31 0 0 0-.038-.763c-.026-.483-.052-.958-.052-1.437-.01-.77 1.23-.83 1.35-.08.19 1.2.39 2.97-.13 4.1-.14.35-.75.49-.9.06-.187-.519-.208-1.06-.228-1.599z" fill="#fff"/>
        <path d="M436.69 269.07c-.7 1-11.8 1.9-15.02 1.92-6.54.08-18.7-.4-18.67-4.2.3-38.57.37-156.38 2.05-183.33.07-1.1 1.14-2.1 2.2-2.42A47.024 47.024 0 0 1 420.6 79c4.8 0 9.28 1.14 13.95 2.13 1.26.28 1.9 1.11 2.1 2.32.18 1 .36 2.03.35 3.06-.04 2.3-.05 4.62-.08 6.95-.33 36.17.46 174.63-.23 175.61z" fill="#DF5632"/>
        <path fill-rule="evenodd" clip-rule="evenodd" d="M412.721 96.871s.05.03.08.03h.01c.381.156.897.093 1.342.039.127-.016.247-.03.358-.039.157-.01.314-.022.473-.034.586-.043 1.18-.086 1.787-.086 1.213 0 2.427.03 3.642.06 1.218.03 2.436.06 3.658.06 2.44.02 4.87.03 7.3-.1 1.56-.07 1.99-.92 1.33-2.28-.027-.05-.052-.1-.076-.15-.048-.098-.094-.194-.154-.28a59.226 59.226 0 0 0-7.05-9.03c-.46-.45-.94-.9-1.47-1.3-1.52-1.11-2.38-1.01-3.65.37-.24.24-.44.49-.64.74-.501.627-1.006 1.254-1.51 1.881a361.285 361.285 0 0 0-2.91 3.649c-.544.698-1.07 1.408-1.596 2.117-.393.53-.786 1.06-1.184 1.583-.55.72-.76 2.2.26 2.77zm6.97 11.16h.01-.01zm-2.483-.091c.827.029 1.655.058 2.483.091v-.04c.728.027 1.456.058 2.182.09 1.438.062 2.873.123 4.308.15 1.08.013 2.159-.053 3.23-.2.89-.11 1.34-.54 1.43-1.37.117-1.156.171-2.318.16-3.48-.03-.73-.52-1.15-1.26-1.23-.386-.04-.781-.044-1.17-.049a21.94 21.94 0 0 1-.58-.011c-1.897-.029-3.793.01-5.689.049-3.352.069-6.701.138-10.041-.169-1.13-.09-2.2.86-2.25 1.77-.03.848.037 1.697.2 2.53.21 1.21.62 1.57 2 1.66 1.662.093 3.329.151 4.997.209z" fill="#fff"/>
        <path fill-rule="evenodd" clip-rule="evenodd" d="M434.761 115.398c-.02 3.373-.04 6.744-.04 10.111 0 47.33-.22 94.64-.52 141.97 0 .71-1 .68-1-.03.234-37.047.351-74.093.35-111.14v-35.48c-.005-3.007-.029-6.018-.052-9.03-.068-8.829-.136-17.672.252-26.47.02-.45.63-.44.66.01.471 10.003.411 20.039.35 30.059zm-25.92 9.601c-.08 23.25-.23 46.5-.38 69.75-.048 6.94-.075 13.883-.103 20.827-.064 16.298-.128 32.603-.457 48.893-.02.72-1 .69-1-.01-.007-8.555.088-17.113.182-25.673.051-4.639.103-9.278.138-13.917.18-23.23.31-46.48.4-69.72l.12-34.87c.009-3.463-.023-6.935-.055-10.409-.076-8.165-.151-16.345.305-24.461.04-.56.76-.54.78.02.478 9.214.338 18.538.199 27.824a984.203 984.203 0 0 0-.129 11.746z" fill="#000"/>
        <path d="M428.362 204.79h-15.048c-.55 0-1.012-.44-1.012-.99s.462-.99 1.012-.99h6.754v-6.424h-6.754c-.55 0-1.012-.44-1.012-.99s.462-.99 1.012-.99h15.048c.55 0 .99.44.99.99s-.44.99-.99.99h-6.402v6.424h6.402c.55 0 .99.44.99.99s-.44.99-.99.99zM427.284 187.565v-3.146h-13.97a1 1 0 0 1-.99-.99 1 1 0 0 1 .99-.99h13.97v-3.388a.92.92 0 0 1 .902-.902c.506 0 .924.418.924.902v8.514c0 .484-.418.902-.924.902a.92.92 0 0 1-.902-.902zM413.094 172.719l3.608-1.012v-5.544l-3.696-1.078c-.396-.132-.704-.506-.704-.946 0-.572.528-1.034 1.1-.968.066 0 .374.066.44.11l14.432 4.51c.616.198 1.056.66 1.056 1.32 0 .748-.462 1.144-1.056 1.32l-14.388 4.246c-.088.022-.33.088-.44.088a1.035 1.035 0 0 1-1.144-1.034c0-.484.33-.902.792-1.012zm13.332-3.674-7.876-2.332v4.488l7.876-2.156zM429.352 145.649c0 .484-.154.924-.902 1.254l-8.338 3.982 8.338 4.07c.484.242.902.572.902 1.232 0 .55-.418 1.034-.968 1.034h-15.092c-.528 0-.99-.418-.99-.946 0-.55.462-.924.99-.924h12.034l-7.062-3.388c-.462-.22-.814-.528-.814-1.1 0-.528.308-.814.77-1.034l6.776-3.322h-11.704c-.528 0-.99-.418-.99-.946 0-.55.462-.924.99-.924h15.092c.528 0 .968.484.968 1.012z" fill="#fff"/>
        <path d="M284.002 268.201c-.06 1.97-11.28 3.33-22.13 3.76-5.78.25-22.04-.79-22.87-1.51-.83-.73-.29-10.81-.3-11.48-.31-38.3-.83-133.7-.61-143.04.04-1.6.01-11.9.96-13.07 1.01-1.25 16.74-1.89 19.51-1.86 11.3.13 22.6 1.46 23.58 2.74 1.18 1.53.84 5.3.95 7.1.2 3.46.23 6.9.26 10.36v.66c.1 9.5.71 144.39.65 146.34z" fill="#562111"/>
        <path d="M258.341 108.02c1.53-.04 3.05 0 4.56.05 3.94.16 8.08.56 11.35 2.8 1.46 1 2.76 2.54 2.75 4.33a4.534 4.534 0 0 1-1.29 2.94 8.662 8.662 0 0 1-2.66 1.83c-3.96 1.87-8.48 2.12-12.84 2a33.403 33.403 0 0 1-7.38-.86c-3.32-.84-8.9-3.22-7.65-7.72.54-1.92 2.43-3.1 4.28-3.81a27.067 27.067 0 0 1 8.88-1.56M251.26 234.468c0 .719.169 1.306.506 1.76.323.47.924.873 1.804 1.21l1.21.44 8.58-3.52c1.056-.41 1.643-1.217 1.76-2.42h.44v1.87c0 1.276-.587 2.156-1.76 2.64l-6.094 2.508 7.634 2.772v1.1l-11.77-4.29c-1.159-.425-1.943-.894-2.354-1.408-.411-.513-.616-1.18-.616-2.002v-.66h.66zM266.88 221.27c.748 0 1.298-.103 1.65-.308.367-.206.55-.616.55-1.232v-.44h.44v1.98c0 .542-.073.946-.22 1.21-.132.278-.381.476-.748.594-.367.117-.924.176-1.672.176h-2.42c.308.308.565.704.77 1.188.22.498.33 1.056.33 1.672 0 1.1-.293 1.994-.88 2.684-.587.704-1.613 1.056-3.08 1.056H255v-1.98h6.6c1.027 0 1.775-.235 2.244-.704.484-.455.726-1.027.726-1.716 0-.778-.389-1.511-1.166-2.2H255v-1.98h11.88zM262.7 208.762c.748 0 1.298-.103 1.65-.308.367-.206.55-.616.55-1.232v-.44h.44v1.98c0 .557-.081.975-.242 1.254-.147.293-.396.498-.748.616v.11c.337.264.623.638.858 1.122.235.484.352 1.1.352 1.848 0 1.261-.513 2.236-1.54 2.926-1.012.689-2.295 1.034-3.85 1.034-1.569 0-2.86-.36-3.872-1.078-1.012-.704-1.518-1.738-1.518-3.102 0-.558.059-1.049.176-1.474.117-.426.279-.851.484-1.276h-4.62v-1.98h11.88zm-7.04 4.07c0 .938.411 1.628 1.232 2.068.821.454 1.914.682 3.278.682 1.349 0 2.435-.213 3.256-.638.836-.426 1.254-1.056 1.254-1.892 0-.983-.44-1.753-1.32-2.31h-7.04c-.205.44-.367.821-.484 1.144a2.763 2.763 0 0 0-.176.946zM254.78 200.012c0-.998.235-1.863.704-2.596a4.626 4.626 0 0 1 1.958-1.672c.821-.382 1.731-.572 2.728-.572.997 0 1.907.19 2.728.572a4.48 4.48 0 0 1 1.936 1.672c.484.733.726 1.598.726 2.596 0 .997-.242 1.862-.726 2.596a4.493 4.493 0 0 1-1.936 1.672c-.821.381-1.731.572-2.728.572-.997 0-1.907-.191-2.728-.572a4.64 4.64 0 0 1-1.958-1.672c-.469-.734-.704-1.599-.704-2.596zm.88 0c0 .542.198 1.019.594 1.43.396.425.939.748 1.628.968.689.234 1.452.352 2.288.352.836 0 1.599-.118 2.288-.352.689-.22 1.232-.543 1.628-.968.396-.411.594-.888.594-1.43 0-.543-.198-1.027-.594-1.452-.396-.411-.939-.734-1.628-.968-.689-.22-1.452-.33-2.288-.33-.836 0-1.599.11-2.288.33-.689.234-1.232.557-1.628.968-.396.425-.594.909-.594 1.452zM254.78 188.401c0-1.686.293-2.823.88-3.41.249-.249.528-.403.836-.462.323-.058.814-.088 1.474-.088v.44c-.733.132-1.305.448-1.716.946-.396.514-.594 1.225-.594 2.134 0 .807.139 1.408.418 1.804.279.411.653.616 1.122.616.425 0 .792-.161 1.1-.484.308-.308.601-.806.88-1.496l.55-1.32c.352-.88.763-1.54 1.232-1.98.469-.44 1.049-.66 1.738-.66.895 0 1.591.338 2.09 1.012.513.675.77 1.548.77 2.618 0 1.614-.293 2.714-.88 3.3-.249.25-.528.404-.836.462-.308.059-.799.088-1.474.088v-.44c.733-.117 1.298-.425 1.694-.924.411-.498.616-1.18.616-2.046 0-.689-.147-1.232-.44-1.628-.279-.381-.645-.572-1.1-.572-.763 0-1.386.587-1.87 1.76l-.55 1.32c-.411.998-.851 1.724-1.32 2.178-.455.455-1.041.682-1.76.682-.895 0-1.599-.359-2.112-1.078-.499-.718-.748-1.642-.748-2.772zM254.78 176.527c0-.997.235-1.862.704-2.596a4.64 4.64 0 0 1 1.958-1.672c.821-.381 1.731-.572 2.728-.572.997 0 1.907.191 2.728.572a4.493 4.493 0 0 1 1.936 1.672c.484.734.726 1.599.726 2.596 0 .998-.242 1.863-.726 2.596a4.48 4.48 0 0 1-1.936 1.672c-.821.382-1.731.572-2.728.572-.997 0-1.907-.19-2.728-.572a4.626 4.626 0 0 1-1.958-1.672c-.469-.733-.704-1.598-.704-2.596zm.88 0c0 .543.198 1.02.594 1.43.396.426.939.748 1.628.968.689.235 1.452.352 2.288.352.836 0 1.599-.117 2.288-.352.689-.22 1.232-.542 1.628-.968.396-.41.594-.887.594-1.43 0-.542-.198-1.026-.594-1.452-.396-.41-.939-.733-1.628-.968-.689-.22-1.452-.33-2.288-.33-.836 0-1.599.11-2.288.33-.689.235-1.232.558-1.628.968-.396.426-.594.91-.594 1.452zM266.88 166.041c.748 0 1.298-.103 1.65-.308.367-.205.55-.616.55-1.232v-.44h.44v1.98c0 .543-.073.946-.22 1.21-.132.279-.381.477-.748.594-.367.117-.924.176-1.672.176H255v-1.98h11.88zM266.66 160.533c0-.337.139-.631.418-.88.279-.235.609-.352.99-.352.308 0 .55.088.726.264.176.191.264.44.264.748 0 .337-.139.623-.418.858a1.438 1.438 0 0 1-.99.374c-.308 0-.55-.095-.726-.286-.176-.176-.264-.418-.264-.726zm-3.96-.836c.748 0 1.298-.103 1.65-.308.367-.205.55-.616.55-1.232v-.44h.44v1.98c0 .543-.073.946-.22 1.21-.132.279-.381.477-.748.594-.367.117-.924.176-1.672.176H255v-1.98h7.7zM266.88 146.723c.748 0 1.298-.103 1.65-.308.367-.206.55-.616.55-1.232v-.44h.44v1.98c0 .542-.073.946-.22 1.21-.132.278-.381.476-.748.594-.367.117-.924.176-1.672.176h-2.42c.308.308.565.704.77 1.188.22.498.33 1.056.33 1.672 0 1.1-.293 1.994-.88 2.684-.587.704-1.613 1.056-3.08 1.056H255v-1.98h6.6c1.027 0 1.775-.235 2.244-.704.484-.455.726-1.027.726-1.716 0-.778-.389-1.511-1.166-2.2H255v-1.98h11.88zM266.88 134.332c.748 0 1.298-.103 1.65-.308.367-.205.55-.616.55-1.232v-.44h.44v5.72c0 1.408-.301 2.677-.902 3.806s-1.767 1.694-3.498 1.694c-1.144 0-2.024-.293-2.64-.88-.616-.587-1.027-1.247-1.232-1.98-.205-.719-.308-1.379-.308-1.98v-2.42H255v-1.98h11.88zm-5.17 3.63c0 .469.117.968.352 1.496.249.528.638.975 1.166 1.342.528.381 1.195.572 2.002.572.807 0 1.474-.191 2.002-.572.528-.367.909-.814 1.144-1.342.249-.528.374-1.027.374-1.496 0-.513-.073-1.063-.22-1.65h-6.6a6.809 6.809 0 0 0-.22 1.65z" fill="#E3C2AC"/>
        <path d="M582.611 248.53c-.13 6.26-.26 11.01-.3 15.75-.01 1.56-.58 2.26-2.1 2.92-9.04 3.92-18.17 3.25-27.38.88-.63-.16-.7-.1-1.28-.42-.75-.41-.53-4.3-.48-5.37.43-10.7.86-130.54.7-135.21-.04-1.18.16-2.38.25-3.55.15-2.16 1.35-3.49 3.4-3.83 2.13-.37 4.31-.75 6.48-.7 5.36.14 10.73.42 16.08.8 3.2.2 4.3 1.38 4.5 4.67.24 3.99.34 7.96.37 11.95.02 3.56-.2 7.14-.16 10.7.05 7.64-.1 96.56-.07 101.42" fill="#8DC7D6"/>
        <path d="M510.04 111.019c-.02-3.92-.08-7.83 0-11.75.04-2.13.35-2.24 2.4-2.92 4.43-1.49 12.9-2.45 17.51-2.34 7.44.14 10.95.96 18.3 2.15l.5.06c4.13.64 5.16 1.79 5.25 6 .04 1.6-.65 67.87-.65 67.87s-1.11 81.69-1.38 93.44c-.09 3.67-1.15 5.3-4.57 6.39a51.046 51.046 0 0 1-7.08 1.51c-7.11 1.16-14.17.41-21.14-1.01-2.42-.47-4.69-1.71-7.03-2.64-1.4-.56-2.02-1.6-2-3.16.61-39.45-.09-141.8-.11-153.47v-.13z" fill="#A5483D"/>
        <path d="M513.482 99.89c.54-.44 1.61-.38 2.26-.42 1.51-.12 3.03-.07 4.54-.04l26.8.48c.24 0 .5 0 .74.02 1.55.081 1.76.221 1.87 1.641.14 1.85.23 3.7.3 5.57.02.51-.03 1.08-.16 1.6-.23.9-.8 1.57-1.87 1.67-1.19.11-2.38.2-3.56.2-4.09-.04-8.16-.16-12.24-.2-3.4-.06-6.82-.08-10.22-.04-1.52 0-8.34.45-8.52-.86a45.923 45.923 0 0 1-.41-5.2c-.026-.818 0-1.636.08-2.45.05-.52-.04-1.1.13-1.6a.794.794 0 0 1 .26-.37" fill="#000"/>
        <path d="m530.441 116.991-11.9.12c-.66 0-1.34-.01-2.01-.06-.33-.02-.72-.07-.95-.25a1.589 1.589 0 0 1-.58-.93c-.02-.2.33-.6.58-.64.9-.2 1.82-.34 2.73-.34 4.64 0 9.27.07 13.91.08 4.46.02 8.94-.1 13.4-.04 1.6.02 3.18.28 4.77.49.24.03.62.38.61.59 0 .21-.35.52-.61.6-.56.13-1.16.19-1.75.2-6.06.1-12.14.17-18.2.24v-.06z" fill="#fff"/>
        <path fill-rule="evenodd" clip-rule="evenodd" d="M543.925 219.878c-.85-1.7-2.52-1.93-3.63-1.93l-.62.01-14.49.8-.034.002c-1.307.081-3.697.227-5.026 2.428a6.34 6.34 0 0 0 .12 6.33c.65.96 1.63 1.52 2.73 1.56h.1a3.396 3.396 0 0 0 2.64-1.3c.32-.4.23-.96-.23-1.26-.45-.3-1.08-.2-1.41.2-.3.36-.65.55-1 .55h-.03a1.442 1.442 0 0 1-1.07-.68c-.78-1.16-.81-3.33-.06-4.56.74-1.23 1.99-1.38 3.41-1.45l14.47-.82c1.34-.12 1.91.13 2.26.85.57 1.13.06 3-.76 3.79-.75.78-1.72.93-3.02 1.08-.55.05-.96.5-.88 1a.921.921 0 0 0 1.12.77c1.25-.13 2.97-.33 4.3-1.65 1.29-1.26 2.03-3.86 1.11-5.72zm-16.3-16.29c-.49-.04-1.04-.08-1.61-.08-.84 0-1.73.09-2.63.41a6.274 6.274 0 0 0-3.62 3.92c-.66 1.86-.64 4.73.66 6.33 1.22 1.52 2.98 1.41 3.98 1.26l13.56-1.18c2.15-.19 4.42-1.65 4.37-5.19-.07-3.06-2.12-4.6-4-4.72l-10.71-.75zm10.57 2.63-10.71-.75-.113-.008c-1.105-.078-2.242-.158-3.277.238a4.3 4.3 0 0 0-2.49 2.76c-.56 1.55-.39 3.64.35 4.56.48.59 1.1.66 2.27.55l13.57-1.2c1.2-.12 2.63-.76 2.58-3.28-.03-2.15-1.44-2.82-2.18-2.87zm-11.064-23.673c-.355-.018-.718-.037-1.086-.037-.86 0-1.76.09-2.66.42a6.282 6.282 0 0 0-3.62 3.92c-.66 1.86-.64 4.73.66 6.36 1.21 1.48 2.92 1.34 3.98 1.25l13.57-1.2c1.04-.08 4.42-.75 4.36-5.2-.07-3.07-2.12-4.61-4-4.73a1473.5 1473.5 0 0 0-4.516-.318h-.002c-2.064-.143-4.126-.286-6.192-.442-.162-.006-.327-.015-.494-.023zm11.064 2.663-.223-.015c-3.496-.235-7.001-.471-10.487-.735-1.2-.09-2.34-.15-3.39.24a4.32 4.32 0 0 0-2.49 2.77c-.54 1.53-.39 3.67.35 4.57.48.6 1.08.63 2.29.54l13.55-1.2c1.2-.12 2.63-.76 2.58-3.3-.03-2.14-1.44-2.81-2.18-2.86v-.01zm-9.038-36.662c-.359-.018-.736-.038-1.112-.038-.86 0-1.76.09-2.66.42a6.361 6.361 0 0 0-3.63 3.92c-.65 1.86-.63 4.74.67 6.36 1.184 1.442 2.851 1.334 3.853 1.269l.061-.004.076-.005 13.56-1.2c2.14-.19 4.41-1.65 4.36-5.21-.07-3.05-2.11-4.59-4-4.72l-10.72-.77c-.148-.006-.302-.014-.458-.022zm-3.682 10.082c.24 0 .48-.01.75-.04l13.57-1.2c1.2-.1 2.63-.76 2.58-3.3-.03-2.14-1.39-2.81-2.18-2.86l-10.71-.76c-1.22-.1-2.35-.16-3.39.23a4.36 4.36 0 0 0-2.5 2.77c-.54 1.52-.36 3.66.36 4.56.37.45.83.6 1.52.6zm1.43-29.12c.82 0 1.69.2 2.6.56a.958.958 0 0 1 .52 1.28c-.21.48-.8.72-1.3.52-1.58-.67-2.86-.49-3.79.42-1.4 1.41-1.98 4.8-1.29 7.38.6 2.27 2.15 3.9 3.68 3.9h.08c1.49-.06 3.1-1.6 4.1-3.9.35-.797.625-1.679.897-2.554l.023-.076c.4-1.3.82-2.63 1.47-3.79 1.27-2.32 3.32-3.57 5.37-3.3 1.96.26 3.69 1.92 4.53 4.34.82 2.39.7 5.41-.33 7.53a4.779 4.779 0 0 1-2.95 2.66 3.2 3.2 0 0 1-2.64-.41.954.954 0 0 1-.27-1.35c.32-.46.95-.57 1.4-.27.32.2.61.3.97.16.63-.16 1.25-.78 1.66-1.62a8.546 8.546 0 0 0 .25-6.09c-.58-1.68-1.72-2.87-2.9-3.01-1.07-.17-2.47.74-3.32 2.27-.54 1-.92 2.18-1.32 3.45l-.024.079c-.292.934-.586 1.875-.956 2.721-1.32 3.06-3.58 5.02-5.9 5.1h-.13c-2.48 0-4.79-2.18-5.64-5.36-.88-3.25-.1-7.3 1.8-9.21a4.663 4.663 0 0 1 3.41-1.43zm13.43 33.43c1.07 0 2.75.24 3.6 1.93.9 1.86.16 4.47-1.1 5.73-1.35 1.32-3.06 1.51-4.3 1.64a.937.937 0 0 1-1.13-.77c-.07-.5.33-.94.88-1 1.29-.15 2.26-.3 3.03-1.07.8-.8 1.3-2.67.75-3.8-.35-.7-.84-.93-2.25-.83-4.83.26-9.66.52-14.5.8-1.67.08-2.71.35-3.4 1.48a4.772 4.772 0 0 0 .06 4.53c.245.388.654.642 1.11.69.34 0 .7-.18 1-.54.3-.41.94-.5 1.4-.2.46.3.56.86.23 1.25a3.398 3.398 0 0 1-2.63 1.3h-.13c-1.07-.05-2.07-.61-2.71-1.56a6.32 6.32 0 0 1-.12-6.33c1.348-2.227 3.774-2.36 5.055-2.43h.005l14.5-.8.65-.02zm3.02 13.03c.51 0 .94.36.98.84.04.49-.38.92-.91.96-7.03.44-14.04.86-21.06 1.28h-.07c-.5 0-.93-.36-.96-.84-.04-.49.37-.93.91-.97l21.05-1.27h.06zm.98 19.16c-.04-.48-.47-.84-.98-.84h-.06l-21.04 1.28c-.53.04-.92.44-.92.92l.1 2.72.023.638c.025.679.05 1.364.057 2.002.01.48.46.88.99.88h.01c.53 0 .96-.42.96-.9-.019-.85-.058-1.738-.097-2.636l-.003-.064-.07-1.81 20.12-1.23c.53-.04.95-.47.91-.96z" fill="#C1A79D"/>
        <path fill-rule="evenodd" clip-rule="evenodd" d="M543.525 230.267c-.97-.17-1.95-.25-2.93-.25-1.72 0-3.45.26-5.15.8a6.23 6.23 0 0 0-3.31 2.18 5.4 5.4 0 0 0-.7 4.9l.16.34-11.16-.98h-.1c-.51 0-.94.34-1 .81-.05.49.35.93.9.97l22.18 1.94c.44.13 1.03-.3 1.1-.8.05-.48-.34-.92-.88-.98l-7.22-.78c-1.1-.12-1.76-.34-2.1-1.15-.42-1.01-.08-2.5.5-3.28a4.091 4.091 0 0 1 2.31-1.47c2.32-.75 4.69-.88 7-.49.54.08 1.08-.21 1.2-.7.1-.49-.26-.96-.8-1.06zm-18.95-7.54a.9.9 0 0 0-.9-.9l-.01.01c-.5 0-.9.41-.9.9l.1 6.2a6.597 6.597 0 0 0-4.27.1.889.889 0 0 0-.55 1.14.879.879 0 0 0 1.14.54c1.39-.46 2.82-.36 4.17.36a.97.97 0 0 0 .89 0c.28-.19.43-.49.43-.8l-.1-7.55z" fill="#C1A79D"/>
        <path fill-rule="evenodd" clip-rule="evenodd" d="M551.133 142.544c-.063 2.648-.125 5.294-.173 7.936h-.01c-.57 35.29-.94 70.58-1.1 105.87 0 .89-1.24.86-1.24-.04.04-9.97.09-19.97.16-29.97.15-17.64.34-35.29.58-52.94.064-4.684.095-9.378.127-14.077.086-12.958.173-25.949.943-38.843.03-.66.91-.63.92.03.14 7.328-.034 14.689-.207 22.034zm-36.801-.111c-.016 2.681-.032 5.361-.032 8.037h.01c.06 35.288.34 70.576.84 105.86.01.9-1.24.89-1.25 0a8679.653 8679.653 0 0 1-.78-82.91c-.019-4.82-.074-9.651-.129-14.486-.147-12.817-.294-25.664.229-38.444a.46.46 0 0 1 .92 0c.278 7.297.235 14.626.192 21.943z" fill="#000"/>
        <path d="M475.761 268.8a51.233 51.233 0 0 1-17.32 3.17c-6.06.1-12.17.1-18.08-1.65-.73-.2-1.53-.16-2.65-.26-.2-1.04-.59-2.09-.59-3.14l-.01-3.3-.02-1.82V256l-.04-15.88c-.02-13.5-.08-26.97-.04-40.46 0-3.26.47-6.5.47-9.78-.02-11.52-.22-23-.24-34.52 0-10.68.08-21.33.15-31.99l.01-2.12.04-5.33c.03-3.34.96-5.99 4.32-6.57 5.61-1 8.4-1 14.1-1.26 4.8-.21 14.48-.3 18.86 2.16 1.96 1.12 1.9 2.57 1.94 4.73.03 2.26.07 4.5.08 6.76.03.57.03 1.13.03 1.7.12 9.39.19 18.75.24 28.12.08 15.8 0 31.62.15 47.42.08 8.94.52 17.86.72 26.78.1 3.87-.05 7.74-.05 11.6l-.03 18.54v7.75c0 .51 0 1.03.08 1.54.31 2.45.14 2.76-2.12 3.6" fill="#203954"/>
        <path fill-rule="evenodd" clip-rule="evenodd" d="m473.235 121.997 2.766-.057c0-.52 0-1.02-.03-1.54l-.058-.002c-.499-.02-.981-.038-1.462-.038-11.52-.18-23.04-.35-34.55-.48a45.804 45.804 0 0 0-2.87.08c0 .433-.009.858-.018 1.282-.004.212-.009.425-.012.638 1.82-.04 3.63-.06 5.45-.05 3.195.032 6.392.084 9.59.136 3.851.063 7.704.127 11.56.154 3.202.015 6.417-.054 9.634-.123zm4.229 134.535.537-.032v-1.46l-.99-.02c-5.76-.07-11.52-.05-17.28.05-6.12.097-12.26.083-18.398.068a6255.44 6255.44 0 0 0-4.332-.008l.01 1.82c.45.03.89.05 1.33.05 3.891.045 7.781.008 11.672-.029l1.168-.011c2.076-.02 4.152-.039 6.23-.057 5.167-.046 10.339-.092 15.51-.163 1.511-.027 3.03-.118 4.543-.208z" fill="#DEF0F5"/>
        <path d="M404.541 235.1c-.03 6.1.22 12.06.26 18.13.04 3.52-.08 7.05-.08 10.57 0 3.1-.74 5.37-3.55 6.2-2.38.7-4.8 1.28-7.24 1.52-6.6.6-13.21 1.2-19.82 1.44-4.1.16-8.21-.25-12.3-.62-2.89-.27-5.76-.92-8.65-1.4-.39-.083-.771-.2-1.14-.35-3.14-1.16-3.25-1.33-3.48-5.57-1-19.08.89-148.03 1.03-148.59.1-.44 4.65-3.01 6.69-3.42 14.7-3.05 21.68-2.1 36.37-.61.72.06 9.03 1.92 9.74 2.13 1.8.55 2.42 1.53 2.45 3.9.2 17 .21 34 .14 51.03-.09 21.88-.32 43.78-.42 65.64z" fill="#010101"/>
        <path d="M398.66 117.981c-3.58-.78-7.51-.61-11.17-.74a498.876 498.876 0 0 0-23.94-.1l-5.53.16c-1.64.06-3.29-.06-4.82.51-.33.12-.21.58.08.67 1.66.47 3.46.17 5.17.11a419.077 419.077 0 0 1 17.04-.23c3.67.03 7.37.09 11.05.2 3.92.1 8.07.67 11.97.27.5-.06.73-.72.15-.85" fill="#fff"/>
        <path d="M324.991 267.2c.52 3-14.17 3.6-20.4 3.77-11.71.32-20.41-2.05-21.4-2.6-1-.53-1.16-11.5-1.17-16-.16-38.4.93-123.07.96-124.77.04-1.7.05-3.66 1.6-4.05 2.23-.58 5.39-.9 7.7-1.1 4.7-.4 9.44-.5 14.18-.43 4.57.07 9.39 0 13.94.6 2 .26 2.52.69 2.65 2.72.3 4.48.59 8.98.7 13.46.4 19.18 1.1 127.63 1.24 128.4" fill="#7FADAA"/>
        <path fill-rule="evenodd" clip-rule="evenodd" d="M312.781 164.46c-.54.69-19.06.8-19.12-.14-.1-1.28-.17-3.53-.2-4.84-.107-5.12-.204-10.249-.302-15.378l-.148-7.692c-.03-1.3 0-4.5.05-5.81.1-1.88 19.14-2.09 19.41-.7.27 1.37.85 33.86.3 34.56h.01zm.89 13.67c.38.42.58 3.61-.22 3.85-.79.27-19.76.39-20.11-.14-.36-.53-.58-3.85.12-4 .27-.06 19.85-.14 20.2.29h.01zm-20.47-8.97c-.41.31-.14 3.98.35 3.98h-.01c3.05.14 19.81.12 20.2-.26.42-.4.3-3.5-.14-3.9-.47-.4-20.01-.13-20.4.18zm4.64 85.51v-.03c-.01-2.02-.02-4.06-.05-6.08l-.18-13.16c-.03-2.569-.024-5.141-.019-7.714.013-6.112.026-12.229-.431-18.316-.04-.46-.96-.5-.99-.06-.29 5.968-.131 11.983.027 17.991.071 2.679.142 5.357.173 8.029l.17 12.85.1 6.44c.011.556-.01 1.131-.032 1.714-.057 1.506-.115 3.066.382 4.486.08.2.57.26.65.03.462-1.394.366-2.961.274-4.473a30.685 30.685 0 0 1-.074-1.707zm10.67-.24c.28-6.38.426-12.764.44-19.15a505.901 505.901 0 0 0-.8-25.98c-.02-.46-1-.37-.98.1.42 8.553.6 17.117.54 25.68 0 4.3-.07 8.58-.19 12.85-.045 1.652-.107 3.294-.168 4.936l-.062 1.664c-.017.59-.065 1.192-.112 1.799-.12 1.512-.241 3.048.102 4.461.06.26.53.3.63.02.531-1.524.547-3.177.564-4.779.005-.542.011-1.078.036-1.601z" fill="#216475"/>
        <path d="M233.761 271.47c-12.57 1.76-23.98 2.18-36.64.3-3.26-.48-14.15-19.37-14.12-25.54.14-25.56 1.55-111.78 2.08-129.31.07-1.77.38-3.57.73-5.3.28-1.42 1.24-2.16 2.77-2.21 2.26-.07 4.51-.48 6.75-.4 13.29.37 26.56.83 39.84 1.26.43 0 .86.04 1.29.09 2.76.34 2.67 2.56 2.9 5.37.28 3.24.58 149.96.63 150.98.21 3.97-2.86 4.3-6.23 4.76z" fill="#144683"/>
        <path d="M206.001 248.32c.1-.94.14-1.9.28-2.84.182-1.982 36.003-20.348 37.33-20.45 1.91-.19 3.32.6 3.96 2.4.37 1.07.54 2.3.44 3.45-.08 1.19-.14 2.33.38 3.43.9 2 .79 3.94-.24 5.83a4 4 0 0 0-.38 3.4 4 4 0 0 1-.1 2.79 7.428 7.428 0 0 0-.08 4.95c.06.2.1.42.14.65.37 1.97-.16 3.6-1.95 4.59-2.04 1.15-36.999 12.432-37.779 12.512-1.78.2-2.001-20.712-2.001-20.712z" fill="#DEF0F5"/>
        <path d="M95.64 274.84a51.55 51.55 0 0 1-4.47-.48c-1.41-.23-1.97-1.21-2.16-2.43a50.724 50.724 0 0 1-.52-4.47c-.4-5.83-.75-11.65-1.12-17.47-.12-1.89-.33-3.77-.37-5.64-.05-2.12.55-2.92 2.66-3.4 1.58-.35 3.22-.56 4.82-.69 4.23-.34 8.461-.72 12.741-.7 5.59.03 11.18-.35 16.78-.56 4.98-.17 9.95-.33 14.93-.54 2.8-.1 5.6-.34 8.39-.47 3.64-.18 7.27-.33 10.9-.46 3.52-.13 7.05-.28 10.59-.29 4.07-.03 8.16.08 12.26.12l11.75.12c1.4.01 1.95-.37 2.3-1.74.23-.94.28-1.95.4-2.94.3-2.59.57-5.2.84-7.79.14-1.46.26-1.65 1.7-1.7 6.32-.12 12.64-.27 18.97-.3 5.05-.03 10.08.11 15.12.12 4.26.02 8.5-.05 12.77-.07.56 0 1.11.05 1.67.11.91.15 1.53.6 1.81 1.51.3.96-.01 1.69-.75 2.2-.96.65-1.94 1.34-3 1.8a984.55 984.55 0 0 1-32.84 13.28c-1.36.52-1.92 1.36-2.04 2.69-.15 2.03-.45 4.1-.55 6.14-.21 4.33-.36 8.66-.53 13-.05 1.8.58 2.4 2.34 1.9 2.86-.8 5.7-1.64 8.5-2.63 7.87-2.78 15.73-5.54 23.85-7.5 2.12-.5 4.3-.77 6.45-1.15.33-.06.73-.12 1 .02.44.25.98.6 1.14 1.01.12.35-.17 1.02-.5 1.3-.57.5-1.26.92-1.97 1.23-3.14 1.32-6.26 2.75-9.49 3.84-8.52 2.9-17.08 5.7-25.7 8.37-3.6 1.12-7.34 2-11.09 2.59-5.75.9-11.85.63-17.67.81a2500.492 2500.492 0 0 1-76.68 1.34c-4.44.02-8.85.21-13.23-.08" fill="#8DC7D6"/>
        <path d="M203.661 242.5c-7.58-.04-15.16.11-22.75.08-7.48-.05-14.98-.13-22.47-.12-15.15.01-30.29.31-45.43.91-8.5.35-17.1.53-25.57 1.34-.57.05-.6.84 0 .83 7.6-.21 15.22-.81 22.83-1.14 7.51-.3 15.03-.56 22.56-.72 15.12-.36 30.23-.3 45.35-.21 8.49.07 17.02.24 25.48-.33.45-.02.46-.63 0-.65" fill="#fff"/>
        <path d="M343.482 269.32c-6.1.92-12.24.92-18.34-.08a8.45 8.45 0 0 1-2.17-.79c-.947-.365-1.73-3.63-1.8-4.31-.014-.25-.021-.5-.02-.75-.02-.55.23-118.88.29-138.49.01-6-.07-12.02-.15-18.04l-.04-2.16-.04-2.7v-.16c-.01-.9 0-1.62.08-2.2.21-1.9 1.06-2.35 3.75-2.81 2.57-.45 5.18-.83 7.78-.83 4.6.03 9.2.22 13.8.58 3.39.26 4.14.86 4.33 4.08l.02 1.09.03 1.14c0 1.06-.01 2.1-.03 3.16-.02.84-.05 1.66-.06 2.5l-.04 1.85c-.16 10.12-.37 20.2-.5 30.3-.16 14.18-.28 28.34-.43 42.52h-.2c-.36 26.39-.72 52.77-1.1 79.15v.29c0 .77-.03 1.45-.08 2.06-.28 3.18-1.35 4.04-5.08 4.6z" fill="#355694"/>
        <path fill-rule="evenodd" clip-rule="evenodd" d="m350.36 103.46.64.02-.01-1.04-.04-1c-3.56-.25-7.12-.42-10.69-.52-4.807-.151-9.603-.233-14.404-.316l-4.776-.084c-.08.53-.08 1.19-.08 2.01 1.69.14 3.36.23 5.06.3 2.467.106 4.933.151 7.4.195 1.233.022 2.467.045 3.7.075 1.467.04 2.933.074 4.4.108 2.933.069 5.867.138 8.8.252zm.59 5.3.05-2.28c-1.86-.14-3.71-.25-5.56-.35a269.425 269.425 0 0 0-6.43-.237 764.26 764.26 0 0 1-2.14-.063c-1.701-.065-3.401-.128-5.1-.191a4131.02 4131.02 0 0 1-10.77-.409l.006.498c.006.506.011 1.004.034 1.502 3.77.23 7.55.45 11.32.63 6.196.322 12.392.622 18.59.9z" fill="#000"/>
        <path d="M330.074 226.153c0-.036.024-.054.072-.054l5.112.018 7.272-2.412c.048-.012.072.006.072.054v1.998c0 .06-.024.096-.072.108l-4.842 1.332 4.842 1.35c.048.012.072.042.072.09v2.016c0 .048-.024.066-.072.054l-7.2-2.43-5.184.018c-.048 0-.072-.024-.072-.072v-2.07zM330.074 213.008c0-.048.03-.072.09-.072l12.366.018c.048 0 .072.03.072.09v1.998c0 .06-.024.09-.072.09l-4.896-.018v2.7h4.896c.048 0 .072.024.072.072v1.998c0 .06-.024.09-.072.09l-12.366.036c-.06 0-.09-.03-.09-.09v-2.016c0-.06.03-.09.09-.09h5.292v-2.7h-5.292c-.06 0-.09-.024-.09-.072v-2.034zM330.074 201.659c0-.06.03-.09.09-.09l12.366.036c.048 0 .072.024.072.072v3.456c0 1.104-.336 1.974-1.008 2.61-.672.648-1.584.972-2.736.972-.852 0-1.59-.168-2.214-.504-.624-.336-1.104-.774-1.44-1.314a3.276 3.276 0 0 1-.504-1.764v-1.368h-4.536c-.06 0-.09-.03-.09-.09v-2.016zm6.804 2.106v1.368c0 .384.18.714.54.99.372.288.852.432 1.44.432.468 0 .852-.126 1.152-.378.3-.252.45-.6.45-1.044l-.018-1.368h-3.564zM330.164 190.275l12.366 2.232c.048.012.072.042.072.09v2.61c0 .048-.024.078-.072.09l-12.366 2.142c-.06.012-.09-.012-.09-.072v-1.998c0-.048.03-.078.09-.09l1.314-.198v-2.448l-1.314-.198c-.06-.012-.09-.042-.09-.09v-1.998c0-.048.03-.072.09-.072zm3.24 2.718v1.728l5.058-.738.666-.108-.666-.072-5.058-.81zM330.074 179.275c0-.048.03-.072.09-.072l12.366.036c.048 0 .072.024.072.072v3.636c0 .648-.162 1.242-.486 1.782-.312.552-.738.99-1.278 1.314-.528.324-1.128.486-1.8.486-.444 0-.846-.066-1.206-.198a3.956 3.956 0 0 1-.9-.468c-.24-.18-.42-.342-.54-.486a3.672 3.672 0 0 1-2.538.972l-3.69.018c-.06 0-.09-.03-.09-.09v-2.034c0-.048.018-.072.054-.072h3.726c.432 0 .804-.156 1.116-.468.324-.3.486-.672.486-1.116v-1.188l-5.292-.018c-.06 0-.09-.024-.09-.072v-2.034zm7.542 2.124v1.548c0 .372.138.702.414.99.276.288.612.432 1.008.432.384 0 .714-.144.99-.432a1.35 1.35 0 0 0 .414-.99v-1.548h-2.826zM329.894 171.394c0-.648.162-1.236.486-1.764a3.775 3.775 0 0 1 1.296-1.278 3.666 3.666 0 0 1 1.836-.468h5.706c.648 0 1.242.156 1.782.468.552.324.99.75 1.314 1.278.324.54.486 1.128.486 1.764 0 .66-.162 1.254-.486 1.782-.312.54-.738.966-1.278 1.278a3.567 3.567 0 0 1-1.818.468h-.828c-.048 0-.072-.03-.072-.09v-2.016c0-.048.024-.072.072-.072h.684c.456 0 .834-.132 1.134-.396.3-.252.45-.57.45-.954 0-.348-.144-.66-.432-.936a1.445 1.445 0 0 0-1.008-.396h-5.706c-.396 0-.738.132-1.026.396a1.253 1.253 0 0 0-.414.936c0 .384.138.702.414.954.276.264.618.396 1.026.396h.882v-1.26c0-.06.03-.09.09-.09h2.016c.06 0 .09.03.09.09v3.366c0 .048-.03.072-.09.072h-2.988a3.56 3.56 0 0 1-1.836-.486 3.623 3.623 0 0 1-1.296-1.26 3.339 3.339 0 0 1-.486-1.782zM329.894 160.203c0-.648.162-1.242.486-1.782a3.936 3.936 0 0 1 1.314-1.278 3.526 3.526 0 0 1 1.818-.486l5.706.018c.66 0 1.26.156 1.8.468.54.324.972.756 1.296 1.296.324.54.486 1.128.486 1.764 0 .648-.162 1.236-.486 1.764a3.623 3.623 0 0 1-1.296 1.26c-.54.324-1.14.486-1.8.486l-5.706.018c-.66 0-1.266-.162-1.818-.486a3.721 3.721 0 0 1-1.314-1.278 3.306 3.306 0 0 1-.486-1.764zm2.178 0c0 .36.144.672.432.936.3.276.636.414 1.008.414l5.706-.018c.396 0 .732-.126 1.008-.378s.414-.57.414-.954c0-.372-.138-.69-.414-.954-.264-.264-.6-.396-1.008-.396h-5.706c-.396 0-.738.132-1.026.396a1.273 1.273 0 0 0-.414.954zM330.074 150.184c0-.06.03-.09.09-.09l12.366.018c.048 0 .072.024.072.072v2.016c0 .048-.024.072-.072.072l-12.366.018c-.06 0-.09-.024-.09-.072v-2.034zM330.074 138.816c0-.048.03-.072.09-.072l12.366.036c.048 0 .072.024.072.072v3.456c0 .684-.168 1.296-.504 1.836-.324.54-.756.966-1.296 1.278a3.465 3.465 0 0 1-1.764.468 2.98 2.98 0 0 1-1.44-.36 3.488 3.488 0 0 1-1.08-.828 3.744 3.744 0 0 1-2.646 1.098 3.718 3.718 0 0 1-1.908-.504 3.881 3.881 0 0 1-1.386-1.368 3.622 3.622 0 0 1-.504-1.89v-3.222zm7.56 2.124v1.368c0 .42.144.756.432 1.008.3.264.624.396.972.396.384 0 .714-.138.99-.414.288-.276.432-.606.432-.99v-1.368h-2.826zm-5.364-.018v1.116c0 .432.156.804.468 1.116.324.312.702.468 1.134.468.432 0 .804-.156 1.116-.468.312-.312.468-.684.468-1.116v-1.098l-3.186-.018z" fill="#C0D3E7"/>
        <path fill-rule="evenodd" clip-rule="evenodd" d="m202.107 266.525.024-.185-.02-.81c-.022-.725-.05-1.449-.079-2.172-.06-1.563-.121-3.123-.121-4.688-.018-2.4-.004-4.8.011-7.2.009-1.6.019-3.2.019-4.8v-.128c.001-.295.002-.581-.05-.852-.06-.35-.3-.58-.7-.68-.38-.07-.83.16-.95.56-.12.38-.21.8-.22 1.23l-.044 1.587c-.061 2.121-.122 4.244-.106 6.373.016 2.181.099 4.374.182 6.57l.068 1.81c.026.907.095 1.821.165 2.736l.035.464c.04.372.124.738.25 1.09a.74.74 0 0 0 .78.57c.34-.03.53-.26.6-.54.081-.323.122-.66.156-.935zm-81.886.065c-.059.41-.139.818-.24 1.22 0 .09-.2.19-.3.19-.2 0-.45-.04-.56-.14a1.248 1.248 0 0 1-.3-.57c-.027-.157-.056-.313-.084-.47-.108-.594-.217-1.191-.256-1.8-.12-1.81-.19-3.62-.25-5.44-.028-.976-.05-1.952-.071-2.928-.033-1.464-.065-2.928-.119-4.392-.03-.953-.08-1.904-.131-2.853-.049-.943-.099-1.885-.129-2.827a5.11 5.11 0 0 1 .12-1.13c.04-.28.28-.42.62-.45.36-.01.7.18.82.48.06.17.1.33.13.5.4 2.7.59 5.39.54 8.09-.023 1.243.005 2.502.033 3.766.01.424.019.849.027 1.274l.06 3.03.1 4.45h-.01zm5.407-19.333c.01-.307.02-.614.043-.927 0-.27.06-.53.13-.8.08-.3.45-.54.78-.53.32.01.6.18.72.44.13.34.24.69.29 1.06.08.88.15 1.78.2 2.68l.037.999c.052 1.339.103 2.68.103 4.001 0 4.32.22 8.66.44 12.99.04.76.02 1.52-.03 2.29 0 .19-.23.4-.42.5-.21.12-.6-.05-.75-.31a2.603 2.603 0 0 1-.3-.63c-.1-.53-.2-1.06-.24-1.6-.22-2.84-.42-5.68-.6-8.51a87.179 87.179 0 0 1-.106-2.834c-.015-.587-.031-1.175-.054-1.766-.05-2.11-.12-4.23-.2-6.36H125.601c.013-.232.02-.463.027-.693z" fill="#57A7BD"/>
        <path fill-rule="evenodd" clip-rule="evenodd" d="M244.301 231.04c-1.307.528-2.613 1.06-3.92 1.591-4.649 1.892-9.3 3.784-14 5.549-2.9 1.1-5.79 2.16-8.7 3.2-.907.326-1.824.634-2.742.943h-.001c-1.956.658-3.915 1.317-5.787 2.147-.32.15-.08.6.26.52 2.376-.563 4.716-1.418 7.025-2.261.684-.25 1.366-.499 2.045-.739a448.146 448.146 0 0 0 9-3.3c5.8-2.2 11.6-4.44 17.3-6.9.51-.25.05-.97-.48-.75zm-6.092 5.39c-3.949 1.539-7.89 3.075-11.918 4.44-.952.327-1.908.649-2.863.971-1.964.661-3.926 1.322-5.857 2.029-.387.139-.78.278-1.176.418-2.529.893-5.186 1.831-7.304 3.292-.17.15-.1.5.18.4 1.745-.528 3.432-1.233 5.117-1.937 1.222-.511 2.443-1.022 3.683-1.463 1.875-.669 3.75-1.299 5.625-1.928 1.125-.378 2.25-.756 3.375-1.142a244.522 244.522 0 0 0 17.7-6.73c.47-.2.14-.93-.33-.75-2.088.784-4.161 1.592-6.232 2.399v.001zm-12.338 11.82a138.795 138.795 0 0 0 16.46-7.19c.51-.28.96.52.44.81-5.05 2.86-10.45 4.99-15.84 6.98a607.807 607.807 0 0 1-8.3 3c-.847.302-1.701.629-2.561.959-2.216.851-4.47 1.715-6.739 2.191-.28.05-.47-.37-.2-.5 1.897-1.006 3.964-1.712 6.012-2.412.803-.275 1.602-.548 2.388-.838l8.34-3zm16.53-.73-1.204.431c-5.158 1.848-10.315 3.695-15.576 5.319-2.78.87-5.58 1.7-8.39 2.5-.805.232-1.65.437-2.504.646-1.945.474-3.94.96-5.636 1.794-.16.07-.1.31.1.3 2.179-.093 4.477-.784 6.655-1.439h.001c.65-.196 1.291-.389 1.914-.561 2.82-.77 5.62-1.6 8.4-2.48 5.59-1.75 11.18-3.6 16.61-5.73.48-.18.14-.96-.36-.78h-.01zm-4.039 6.755c2.003-.746 4.018-1.497 6.059-2.005.51-.13.81.52.36.74-1.908.872-3.994 1.544-6.051 2.207-.822.265-1.64.529-2.439.803-3 1.01-6.02 2.01-9.06 2.91-3.04.92-6.11 1.74-9.21 2.48-.685.159-1.369.305-2.05.45-2.218.474-4.401.939-6.49 1.85-.31.14-.65-.2-.38-.43 1.463-1.262 3.699-1.685 5.766-2.076.603-.114 1.193-.225 1.744-.354 3.09-.72 6.16-1.54 9.21-2.44 3.14-.93 6.24-1.94 9.34-2.98 1.065-.359 2.131-.756 3.201-1.155z" fill="#BDCEDE"/>
        <path fill-rule="evenodd" clip-rule="evenodd" d="M81.03 228.066a1.85 1.85 0 0 1 .09-.196 2.235 2.235 0 0 1-.104-.182.995.995 0 0 0-.155-.238 1.56 1.56 0 0 0-1.7.02.74.74 0 0 0-.25.78.68.68 0 0 0 .56.5c.53.13 1-.06 1.4-.41.075-.069.115-.166.16-.274zm9.226 8.752-.015.132.017.2c.007.105.014.204.033.31a.7.7 0 0 0 .72.59c.3 0 .54-.2.64-.5.15-.38.15-.76 0-1.13a.741.741 0 0 0-.68-.47c-.29.01-.59.24-.66.5-.03.124-.043.248-.055.368z" fill="#fff"/>
        <path d="M367.929 47.04c-.02 1.96-.27 2.23-2.07 2.23-3.42-.01-6.84-.1-10.26-.15v-.02c-1.42-.01-2.82-.05-4.24-.07-.41-.01-.8-.01-1.19-.03h-2.95c-7.38.06-14.74.28-22.12.19-3.13-.05-26.53.81-38.9.87-4.44.01-17.5.01-21.95.2l-.54.01-1.37.03c-.66.01-1.33.03-1.98.06h-.3l-1.4.1c-2.23.16-4.48.35-6.72.44-2.15.1-4.3.13-6.44.06-2-.08-2.48-.69-2.9-2.79-.86-4.25-.87-8.44.47-12.56.77-2.44.84-2.47 3.25-2.55l11.4-.4c.52-.01 1.02-.04 1.52-.07 1.13-.04 2.23-.08 3.36-.15l1.46-.09c14.5-.83 61.45-1.2 86.14-1.3.6 0 1.18 0 1.75-.02 6.4-.03 11.08-.03 12.92-.03 2.26.01 2.78.56 3.08 2.97.05.37.05.75.05 1.12-.04 4.47.01 7.49-.07 11.95" fill="#010101"/>
        <path fill-rule="evenodd" clip-rule="evenodd" d="m259.209 48.92.27-.01c.1-.39.03-.87-.23-1.42-.263-.564-.613-1.07-.946-1.55a27.17 27.17 0 0 1-.354-.52c1.966-3.093 1.961-3.1.133-5.315l-.013-.015c-.05-.057-.069-.154-.088-.255-.012-.06-.023-.12-.042-.175.042-.067.08-.137.118-.207.064-.117.127-.233.202-.333.856-1.115 1.275-1.662 1.267-2.202-.009-.522-.416-1.036-1.217-2.048a2.57 2.57 0 0 1-.167-.285c-.048-.09-.096-.18-.153-.265.102-.264.194-.528.285-.792.061-.176.121-.352.185-.528l-1.4.08-.01.02c-.838 1.305-.214 1.98.422 2.669.358.388.72.78.828 1.291l-.084.132c-.109.174-.233.37-.376.528-1.72 1.88-1.95 2.53.08 4.08.097.069.165.208.249.383.039.08.081.166.131.257-.159.226-.326.45-.494.673-.286.38-.574.764-.826 1.167-.47.72-.74 1.53-.04 2.22.74.7 1.12 1.53.99 2.5l1.28-.08zm4.44-11.08a.746.746 0 0 1-.19.38l-.74 1.03c-.14.18-.27.36-.3.58 0 .18.06.36.12.54.086.225.191.446.296.667.264.555.527 1.11.484 1.733-.049.735-.517 1.303-.965 1.846-.101.122-.201.243-.295.364a.728.728 0 0 0-.16.36c-.01.12.04.26.1.37.11.21.243.41.376.608.276.416.55.828.604 1.322.06.47-.08.93-.32 1.33l-1.25.03c.01-.45 0-.92-.13-1.4-.108-.385-.307-.712-.495-1.02-.383-.63-.719-1.181-.135-1.98.213-.298.43-.587.646-.875.29-.388.579-.773.854-1.175.059-.072-.587-.831-1.072-1.402-.257-.303-.469-.552-.508-.618-.532-.851.167-1.46.814-2.024.204-.178.403-.35.556-.526l.017-.021c.064-.082.124-.159.133-.269.03-.12-.05-.26-.13-.37-.42-.68-.84-1.35-1.27-2.01a1.269 1.269 0 0 1-.15-.36c0-.144.066-.272.122-.384l.018-.036c.28-.5.6-1.03.97-1.45l1.33-.08-.02.078a1.65 1.65 0 0 1-.11.332c-.06.12-.127.234-.192.346-.152.258-.299.507-.348.814a1.22 1.22 0 0 0-.01.5c.06.38.24.73.43 1.02.086.126.176.248.266.37.223.3.442.597.584.94.06.14.1.3.07.44zM351.579 49l-1.08-.03.82-2.4-.022-.077c-.031-.11-.063-.224-.128-.273l-.041-.027c-.974-.633-1.461-.95-1.528-1.338-.067-.39.288-.851.997-1.776l.022-.029c.095-.12.17-.268.258-.442.051-.1.106-.21.172-.328l-1.08-1.36c-.8-1-.8-1.2.02-2.18.33-.4.65-.78 1.07-1.25-.124-.154-.247-.3-.366-.442-.323-.383-.62-.737-.854-1.138-.2-.35-.44-.96-.28-1.26.2-.42.54-1.04.97-1.64l1.59-.01-.169.234c-.486.667-.957 1.315-1.011 1.906.143.216.353.48.576.762.501.63 1.07 1.345 1.104 1.808.034.453-.487.901-1.013 1.354-.264.227-.529.455-.727.686.155.259.339.514.523.768.413.57.822 1.137.877 1.732.035.513-.329 1.06-.696 1.61-.162.243-.325.488-.454.73 1.61 1.32 1.93 3.02.45 4.41z" fill="#DF5632"/>
        <path d="M86.998 226.501c-.25 2.56-.46 5.14-.8 7.7-.11 1-.43 2.04-.86 2.98-.8 1.73-2.1 2.2-3.9 1.52a17.05 17.05 0 0 1-2.46-1.1c-2.7-1.5-5.41-2.98-8.06-4.57a4.2 4.2 0 0 1-2.2-4.03c.17-2.93-.38-5.78-.98-8.64-.34-1.7-.3-3.5-.13-5.23.25-2.59.2-5.15-.45-7.68-.3-1.22-.17-2.4.36-3.54.8-1.67 1.88-2.17 3.8-1.8.55.11 1.14.02 1.69.14 1.15.2 2.42.29 3.41.84 5.47 3.02 9.45 7.19 10.24 13.52.29 2.23.25 4.5.31 6.74.03 1.04-.06 2.08-.1 3.13l.13.02z" fill="#DEF0F5"/>
        <path d="m83.649 237.211-.02-1.7c-.08-2.59-.21-5.17-.24-7.79-.01-3.69.04-7.38.05-11.08 0-.34-.05-.66-.07-.99-.15-1.84-.78-3.1-2.66-4.09-4.02-2.08-7.8-4.63-11.66-7.02-.51-.31-1-.72-1.44-1.12-.98-.95-.75-2.26.5-2.8.35-.16.74-.23 1.14-.27 3.74-.36 7.49-.8 11.25-1.02 5.15-.34 10.3-.57 15.44-.71 4.65-.15 9.31-.07 13.98-.12 5.04-.07 10.08-.18 15.13-.25 8.59-.1 17.2-.2 25.79-.25 5.98-.01 11.97.03 17.97.17 4.37.12 8.73.42 13.1.68 1.57.1 3 .58 4.42 1.3a111.157 111.157 0 0 1 12.67 7.28c.6.4 1.2.8 1.74 1.25.76.63 1.26 1.3 1.01 2.43-.2.82.04 1.76.1 2.63.46 6.2-.3 12.37-.47 18.55-.02.6-.13 1.23-.3 1.8-.57 2.05-1.33 2.75-3.47 2.9-2.99.22-5.97.35-8.97.47-5.97.21-11.96.42-17.95.59-2.66.1-5.31.13-7.97.18-5 .12-9.98.2-14.96.34-4.56.13-9.1.3-13.62.56-4.6.26-9.19.73-13.78.97-6.37.33-12.74.61-19.1.78-4.94.13-9.88.05-14.82.12a8.174 8.174 0 0 1-4.28-1.08c-3.8-2.17-7.6-4.31-11.4-6.5a5.947 5.947 0 0 1-1.72-1.52 1.5 1.5 0 0 1-.16-1.33c.29-.6.9-.48 1.44-.2 3.31 1.66 6.64 3.3 9.95 4.98 1.08.55 2.11 1.16 3.38 1.86" fill="#DF5632"/>
        <path fill-rule="evenodd" clip-rule="evenodd" d="m96.77 215.117.008-.026-.01-.42c-.03-.47-.42-.81-.86-.75-.43.06-.78.5-.67.94.096.365.248.712.45 1.03.15.27.63.25.77-.02.153-.277.25-.571.312-.754zm.566 2.976c-.048-.029-.097-.059-.148-.092-.047.026-.094.05-.14.074-.19.098-.363.188-.46.316-.12.127-.172.31-.22.478-.016.057-.032.112-.05.162l-.254.765c-.227.686-.45 1.363-.706 2.035a5.241 5.241 0 0 1-1.68 2.3c-.665.516-1.392.987-2.1 1.445l-.3.195a2.61 2.61 0 0 1-.55.289c-.084.036-.168.071-.25.111-.32.18-.53.43-.47.81.05.37.35.54.7.63.29.08.58.14.87.2a5.97 5.97 0 0 1 4.3 3.17c.206.405.388.814.57 1.22.109.245.217.489.33.73.025.053.048.108.073.164.085.197.175.405.307.576.22.36.85.44 1.18.16.16-.12.29-.27.39-.42a10.406 10.406 0 0 1 2.84-2.86c.624-.426 1.259-.849 1.892-1.27.422-.28.842-.56 1.258-.84.115-.074.232-.143.348-.211.227-.133.45-.264.642-.429.41-.34.38-.9-.05-1.24a2.541 2.541 0 0 0-.343-.195 3.797 3.797 0 0 1-.287-.155c-.184-.105-.37-.209-.557-.314-.543-.304-1.092-.611-1.613-.946a6.026 6.026 0 0 1-2.02-1.84l-1.88-2.86-.193-.291c-.356-.535-.716-1.076-1.097-1.609-.067-.097-.19-.172-.332-.258zm-.43 4.011c.161-.414.33-.849.542-1.303v-.01l.59.92 1.13 1.98a8.403 8.403 0 0 0 3.2 3.06l.77.48.02.2a20.494 20.494 0 0 0-5.11 4.1c-.344-.052-.414-.251-.482-.443a1.168 1.168 0 0 0-.078-.187c-.144-.241-.28-.489-.415-.737a14.196 14.196 0 0 0-.645-1.103 6.003 6.003 0 0 0-2.41-2.04c-.25-.12-.5-.26-.85-.46a9.536 9.536 0 0 0 2.76-2.46c.435-.595.694-1.263.978-1.997zm9.632 6.737a.88.88 0 0 1-.68-.5.8.8 0 0 1 .3-.9 1.53 1.53 0 0 1 1.8.04c.28.2.3.64.02.88a2.898 2.898 0 0 1-1.44.48z" fill="#fff"/>
        <path fill-rule="evenodd" clip-rule="evenodd" d="M119.478 231.998a.98.98 0 0 1-.97-.94l-.48-10.44c-.05-.94-.13-2.72 1.24-3.82 1.48-1.16 3.7-.78 4.59-.55 1.87.47 3.94 1.7 4.14 3.66.19 1.98-1.64 3.44-3.55 3.85-1.43.34-2.9.19-4.34 0l.33 7.2a.99.99 0 0 1-.93 1.04h-.03zm.52-10.26c1.4.2 2.8.35 4.03.09 1.17-.27 2.1-1.04 2.04-1.73-.08-.72-1.23-1.55-2.69-1.92-1.26-.33-2.37-.25-2.93.19-.48.38-.55 1.08-.5 2.15l.06 1.22h-.01zm9.45 11.34c.03.52.42.92.9.92h.05a.96.96 0 0 0 .85-1.02l-.72-14.04c-.02-.55-.51-1.05-.93-.92a.94.94 0 0 0-.85 1.02l.7 14.04z" fill="#562111"/>
        <path d="M137.008 225h-.01l-6.03-.2a.899.899 0 1 1 .02-1.8h.03l6.03.2c.5.03.88.44.87.94a.9.9 0 0 1-.9.87" fill="#562111"/>
        <path fill-rule="evenodd" clip-rule="evenodd" d="M136.358 231.07c.03.52.42.93.9.93h.04a.95.95 0 0 0 .86-1.01l-.52-14.06c-.03-.53-.4-.9-.94-.93a.95.95 0 0 0-.86 1.01l.52 14.06zm5.23-6.58a.89.89 0 0 0 .88.71v.01l.18-.03c.5-.09.8-.57.7-1.07a18.46 18.46 0 0 0-3.1-6.93.9.9 0 0 0-1.46 1.03 16.54 16.54 0 0 1 2.8 6.28z" fill="#562111"/>
        <path fill-rule="evenodd" clip-rule="evenodd" d="M176.468 230.799a8.11 8.11 0 0 0 3.96 1.2h.31c1.85-.09 3.43-1.22 3.87-2.76.44-1.52-.29-3.33-1.86-4.58-.656-.531-1.385-.94-2.093-1.337l-.237-.133c-.47-.24-.93-.5-1.37-.76-1.18-.75-1.9-1.64-1.98-2.47-.1-.93.76-1.89 1.78-2.02.94-.05 2.21.65 2.41 1.61.09.52.51.85 1.07.75a.96.96 0 0 0 .68-1.14c-.37-1.92-2.37-3.44-4.37-3.12a3.87 3.87 0 0 0-3.36 4.12c.15 1.45 1.16 2.86 2.86 3.92.47.29.97.58 1.47.83.75.41 1.46.8 2.06 1.28.78.63 1.46 1.64 1.22 2.5-.22.75-1.16 1.34-2.23 1.39-1.03.14-2.04-.26-3.37-.98a.861.861 0 0 0-1.2.43.98.98 0 0 0 .38 1.27zm-21.04 1.2c-1.2 0-2.46-.38-3.96-1.18-.44-.23-.6-.81-.4-1.3a.882.882 0 0 1 1.22-.45c1.33.73 2.45 1.18 3.37.99 1.06-.05 2.02-.65 2.22-1.39.24-.84-.44-1.85-1.2-2.5-.6-.47-1.32-.86-2.06-1.26-.5-.26-1-.55-1.49-.85-1.7-1.06-2.71-2.45-2.86-3.92-.1-.96.23-1.97.9-2.75a3.75 3.75 0 0 1 2.48-1.36c.14-.03.28-.03.42-.03a4.059 4.059 0 0 1 3.93 3.15.97.97 0 0 1-.68 1.15.909.909 0 0 1-1.07-.75c-.2-.94-1.36-1.63-2.41-1.6-.5.06-1 .32-1.35.74-.3.38-.46.83-.43 1.25.09.81.8 1.7 1.98 2.45.45.28.91.54 1.38.78l.32.179c.681.38 1.378.77 2 1.271 1.25 1.02 2.4 2.77 1.87 4.62-.43 1.53-2.03 2.67-3.86 2.76h-.32zm-11.68 0h-.04c-.5-.04-.88-.5-.86-1.04.108-2.16-.052-3.517-.283-5.481l-.017-.139-.14-1.14a.99.99 0 0 1 .2-.75l5.4-7.1a.862.862 0 0 1 1.26-.13c.39.34.44.96.12 1.38l-5.14 6.77.08.72.016.128c.242 2.004.422 3.492.304 5.852-.02.52-.42.93-.9.93zm18.55 0c-.49 0-.9-.44-.9-1 0-2.07-.15-4.54-.3-6.94l-.042-.729c-.128-2.188-.258-4.403-.258-6.311 0-.56.39-1 .9-1.02.49 0 .9.44.9 1 0 1.855.131 4.07.26 6.246l.04.684c.15 2.42.3 4.93.3 7.05 0 .56-.39 1-.9 1.02zm6.05-.36c.53.22 1.17.36 1.8.36.9 0 1.82-.27 2.48-.9a3.42 3.42 0 0 0 .9-3.22c-.198-.919-.658-1.739-1.071-2.477l-.069-.123a.876.876 0 0 0-1.25-.3 1.022 1.022 0 0 0-.28 1.34l.107.189c.339.6.685 1.213.793 1.801.06.25.15.9-.31 1.32-.51.47-1.6.55-2.41.2a3.575 3.575 0 0 1-1.8-1.92c-.37-.89-.48-1.87-.57-2.84l-.4-3.62c-.16-1.52-.11-2.64.7-3.18.72-.52 2.1-.41 2.9.26a2.398 2.398 0 0 1 .86 2.4c-.11.52.19 1.05.67 1.17.53.07.98-.21 1.08-.73a4.497 4.497 0 0 0-1.55-4.42c-1.41-1.13-3.58-1.27-4.93-.33-1.899 1.305-1.655 3.775-1.534 5.009l.004.041.4 3.63c.072 1.166.315 2.315.72 3.41a5.402 5.402 0 0 0 2.76 2.93z" fill="#562111"/>
        <path d="M199.568 208.77c-29.88.2-59.74.83-89.6 1.25l-12.81.18c-4.25.06-8.56-.05-12.8.29-.47.03-.49.64 0 .66 3.74.19 7.53 0 11.27-.05l11.28-.16c7.54-.1 15.04-.21 22.57-.33l44.5-.63c8.54-.12 17.07-.2 25.59-.38.57-.03.57-.83 0-.83" fill="#010101"/>
        <path d="M218.731 186.51c.3-.77-.97-.9-1.23-1.4 1.29-.3 2.37.1 2.48 1 .06.61-.01 1.25-.27 1.84-.43 1.07-.67 2.1-.24 3.21.32.83.24 1.68-.38 2.44-.86 1.09-.9 2.26-.7 3.46.13.73.12 1.47.15 2.2.02.71-.43 1.27-1.26 1.7a17.849 17.849 0 0 1-5.4 1.87c-.6.11-1.26.18-1.88.18-3.58-.03-5.6-1.28-5.92-3.62-.47-3.46 1.21-6.38 4.7-8.84a21.292 21.292 0 0 1 9.66-3.88c.1-.02.16-.08.29-.15" fill="#DEF0F5"/>
        <path d="M208.54 201.751c.53-.12 1-.21 1.42-.32 2.17-.58 4.32-1.17 6.5-1.73.65-.18 1.33-.34 2.03-.4 1.19-.1 1.92.41 1.44 1.04-.3.36-.8.7-1.36.95-.88.37-1.87.68-2.82 1-1.44.48-2.93.92-4.34 1.43a23.395 23.395 0 0 1-8.43 1.29c-6.23-.04-12.46-.18-18.7-.31-2.46-.06-4.93-.28-7.38-.36-3.5-.1-6.97-.18-10.44-.2-2.8-.02-5.6.05-8.4.02-4.66-.06-9.33-.2-13.99-.27-4.54-.06-9.09-.13-13.62-.14-8.2-.04-16.39.09-24.58-.27-1-.04-2-.17-3-.27-1.24-.13-2.04-.58-2.25-1.33-.44-1.46-.92-2.94-1.22-4.4-.25-1.3-.39-2.6-.4-3.88 0-1.12.17-2.24.4-3.34.2-.9 1.06-1.59 2.43-1.98a278.083 278.083 0 0 1 11.69-3.27c2.1-.5 4.21-.98 6.32-1.45.31-.07.68-.1.95-.2 3.71-1.26 7.9-1.1 12.02-1.13l18.65-.11c5.67-.04 11.32-.1 16.99-.12 2.9-.01 5.82.07 8.74.1 4.95.08 9.89.13 14.82.27 5.16.16 10.32.35 15.49.62 3.63.2 7.25.5 10.89.8.77.05 1.55.22 2.27.42 1.26.35 1.7 1.03 1.03 1.73-.42.45-1 .86-1.62 1.2-3 1.76-6.55 3.08-10.16 4.33-.78.28-1.33.53-1.34 1.1-.07 2.91-.17 5.8-.25 8.71 0 .13.12.25.22.46" fill="#010101"/>
        <path fill-rule="evenodd" clip-rule="evenodd" d="M207.849 191.531c.05-.024.1-.049.151-.07-.446-.317-1.04-.34-1.566-.36h-.014c-1.24-.06-2.49-.11-3.72-.13-.947-.019-1.894-.022-2.84-.026a145.574 145.574 0 0 1-3.24-.034c-2.293-.054-4.582-.111-6.87-.167h-.001c-4.467-.11-8.929-.22-13.399-.313-3.67-.09-7.33-.12-10.99-.15-1.39-.009-2.776-.003-4.163.002-1.587.007-3.176.014-4.777-.002-2.467 0-4.934-.026-7.406-.051l-1.874-.019h-1.01c-1.583.007-3.161.022-4.737.038l-2.353.022-.844.004a194.12 194.12 0 0 0-5.056.066c-2.92.05-5.83.12-8.75.2l-5.54.13c-.922.021-1.843.049-2.762.076-1.214.035-2.426.071-3.638.094-1.86.04-3.738.062-5.616.084-.938.011-1.877.023-2.814.036-.27.01-.55.04-.77.12a.36.36 0 0 0-.25.3c0 .06.17.19.31.21.38.063.765.097 1.15.1a399.007 399.007 0 0 0 13.665-.171c1.338-.037 2.672-.074 4.005-.099 1.246-.031 2.493-.054 3.738-.077 1.563-.03 3.124-.059 4.682-.103 3.93-.08 7.86-.16 11.8-.1h1.34l1.393-.013a391.51 391.51 0 0 1 5.527-.027c4.61.01 9.23.04 13.85.09 5.4.04 10.8.09 16.2.2 2.253.037 4.505.101 6.758.166 2.027.058 4.055.116 6.082.154 2.017.043 4.024.06 6.024.077a963.8 963.8 0 0 1 2.416.023c.849 0 1.692-.017 2.534-.034l.836-.016c.73-.02 1.47-.05 2.17-.1.133-.014.251-.072.369-.13zm-99.689 4.47c.91-.29 1.9-.45 2.94-.45l.149-.002c.213-.003.492-.008.771.032-.05-.54-.15-1.1-.4-1.6-.21-.41-.72-1.1-1.29-.95a1.363 1.363 0 0 0-.347.143 2.11 2.11 0 0 1-.253.117c-.31.15-.62.31-.87.56-.6.63-.71 1.42-.7 2.15zm3.82.92c-.08.48-.27.94-.53 1.38-.061.09-.125.191-.191.297-.184.292-.388.617-.609.823-.259.251-.479.037-.67-.15-.045-.043-.088-.086-.13-.12a4.48 4.48 0 0 1-1.35-1.6l-.013-.045c-.055-.183-.221-.746-.257-.755a7.564 7.564 0 0 0 3.76.05l-.01.12zm-.01-3.83a3.823 3.823 0 0 1 1.02 2.41 8.49 8.49 0 0 1-.36 2.64c-.137.52-.487.983-.822 1.426l-.018.024c-.33.44-.68.84-1.23.8-.58-.06-1.68-.44-1.68-.44-.14.27-.52.53-.8.7-.32.19-.68.32-1.04.36-.27.03-.37-.27-.28-.47.17-.36.45-.59.79-.79.2-.12.68-.57.68-.57l-.3-.68c-.086-.214-.176-.422-.265-.63a21.354 21.354 0 0 1-.375-.91c-.203.045-.423.039-.638.034-.072-.002-.142-.004-.212-.004-.075 0-.151.002-.227.004-.23.005-.463.011-.673-.034-.39-.1-.79-.69-.34-.97.16-.09 1.94-.11 1.94-.11.09-.82.38-1.61.88-2.3-.68-.22-1.32-.54-1.88-.98-.08-.06-.16-.13-.18-.23-.08-.27.35-.41.65-.35.43.09.86.25 1.23.49.22.14.74.43.74.43l.85-.37c.84-.36 1.88-.08 2.54.52z" fill="#fff"/>
        <path fill-rule="evenodd" clip-rule="evenodd" d="M218.1 189.273c-1.742.297-3.507.987-5.182 1.643l-.738.287c-.064.025-.181.064-.33.115-.757.254-2.362.793-2.32 1.185v.02c0 .14.1.23.22.23.868.028 1.93-.455 2.893-.894.423-.193.827-.377 1.187-.506a58.893 58.893 0 0 1 1.665-.549c.957-.304 1.912-.608 2.835-1.001.32-.14.06-.58-.22-.53h-.01zm-3.131 4.957c-.342.129-.679.256-1.009.363-1.14.37-2.36.8-3.36 1.48v.01c-.19.1-.1.47.16.4.73-.19 1.437-.451 2.146-.711a30.618 30.618 0 0 1 1.674-.579c.191-.059.392-.115.597-.171.822-.227 1.703-.47 2.263-1.079.12-.13.05-.43-.16-.4-.761.104-1.546.399-2.311.687zm-.5 3.235c.881-.338 1.782-.683 2.711-.802.31-.04.39.43.15.58-.772.467-1.662.735-2.529.996-.267.08-.532.16-.791.244-.222.078-.45.166-.682.255-.877.336-1.81.695-2.688.615-.1-.01-.15-.12-.08-.19.597-.589 1.471-.865 2.299-1.128.24-.076.476-.151.701-.232.301-.105.604-.221.909-.338z" fill="#BDCEDE"/>
    </g>
</svg>
